ISO-10303-21;
HEADER;
FILE_DESCRIPTION (( 'STEP AP214' ),
    '1' );
FILE_NAME ('Leica_M-FX_Adapter.STEP',
    '2026-02-02T19:54:14',
    ( '' ),
    ( '' ),
    '',
    '',
    '' );
FILE_SCHEMA (( 'AUTOMOTIVE_DESIGN' ));
ENDSEC;

DATA;
#1 = DIRECTION ( 'NONE',  ( -0.000000000000000000, -1.000000000000000000, -0.000000000000000000 ) ) ;
#2 = EDGE_CURVE ( 'NONE', #68, #497, #404, .T. ) ;
#3 = ORIENTED_EDGE ( 'NONE', *, *, #153, .T. ) ;
#4 = AXIS2_PLACEMENT_3D ( 'NONE', #77, #875, #12 ) ;
#5 = CIRCLE ( 'NONE', #686, 0.5499999999999983791 ) ;
#6 = CARTESIAN_POINT ( 'NONE',  ( 17.32500000000000639, 8.100000000000001421, 17.87499999999998934 ) ) ;
#7 = AXIS2_PLACEMENT_3D ( 'NONE', #802, #374, #102 ) ;
#8 = EDGE_LOOP ( 'NONE', ( #97, #123 ) ) ;
#9 = DIRECTION ( 'NONE',  ( -0.000000000000000000, -1.000000000000000000, -0.000000000000000000 ) ) ;
#10 = ORIENTED_EDGE ( 'NONE', *, *, #569, .F. ) ;
#11 = EDGE_CURVE ( 'NONE', #815, #923, #824, .T. ) ;
#12 = DIRECTION ( 'NONE',  ( 0.000000000000000000, 0.000000000000000000, -1.000000000000000000 ) ) ;
#13 = UNCERTAINTY_MEASURE_WITH_UNIT (LENGTH_MEASURE( 1.000000000000000082E-05 ), #804, 'distance_accuracy_value', 'NONE');
#14 = DIRECTION ( 'NONE',  ( 1.049727191138617217E-16, 0.5150380749100562650, -0.8571673007021111124 ) ) ;
#15 = ORIENTED_EDGE ( 'NONE', *, *, #552, .F. ) ;
#16 = EDGE_LOOP ( 'NONE', ( #877, #751 ) ) ;
#17 = CARTESIAN_POINT ( 'NONE',  ( 0.000000000000000000, 0.000000000000000000, 0.000000000000000000 ) ) ;
#18 = ADVANCED_FACE ( 'NONE', ( #115 ), #612, .F. ) ;
#19 = DIRECTION ( 'NONE',  ( -0.000000000000000000, 1.000000000000000000, -0.000000000000000000 ) ) ;
#20 = AXIS2_PLACEMENT_3D ( 'NONE', #611, #258, #316 ) ;
#21 = DIRECTION ( 'NONE',  ( -0.000000000000000000, 1.000000000000000000, -0.000000000000000000 ) ) ;
#22 = AXIS2_PLACEMENT_3D ( 'NONE', #193, #66, #69 ) ;
#23 = ORIENTED_EDGE ( 'NONE', *, *, #224, .F. ) ;
#24 = AXIS2_PLACEMENT_3D ( 'NONE', #763, #263, #122 ) ;
#25 = CIRCLE ( 'NONE', #794, 0.5499999999999983791 ) ;
#26 = ORIENTED_EDGE ( 'NONE', *, *, #381, .T. ) ;
#27 = DIRECTION ( 'NONE',  ( 0.000000000000000000, 0.000000000000000000, -1.000000000000000000 ) ) ;
#28 = LINE ( 'NONE', #816, #312 ) ;
#29 = EDGE_CURVE ( 'NONE', #227, #919, #545, .T. ) ;
#30 = ORIENTED_EDGE ( 'NONE', *, *, #843, .T. ) ;
#31 = CARTESIAN_POINT ( 'NONE',  ( 0.000000000000000000, 9.550000000000000711, 0.000000000000000000 ) ) ;
#32 = CARTESIAN_POINT ( 'NONE',  ( 0.000000000000000000, 2.600000000000001421, 0.000000000000000000 ) ) ;
#33 = EDGE_LOOP ( 'NONE', ( #266, #368, #191, #575 ) ) ;
#34 = DIRECTION ( 'NONE',  ( -0.000000000000000000, 1.000000000000000000, -0.000000000000000000 ) ) ;
#35 = CARTESIAN_POINT ( 'NONE',  ( 0.000000000000000000, 0.000000000000000000, -27.10000000000000142 ) ) ;
#36 = DIRECTION ( 'NONE',  ( 0.000000000000000000, 0.000000000000000000, -1.000000000000000000 ) ) ;
#37 = VECTOR ( 'NONE', #921, 1000.000000000000000 ) ;
#38 = CIRCLE ( 'NONE', #639, 18.99999999999999645 ) ;
#39 = ORIENTED_EDGE ( 'NONE', *, *, #160, .F. ) ;
#40 = CIRCLE ( 'NONE', #220, 0.5499999999999880540 ) ;
#41 = DIRECTION ( 'NONE',  ( 0.000000000000000000, 0.000000000000000000, -1.000000000000000000 ) ) ;
#42 = DIRECTION ( 'NONE',  ( 0.000000000000000000, -1.000000000000000000, -0.000000000000000000 ) ) ;
#43 = ORIENTED_EDGE ( 'NONE', *, *, #298, .T. ) ;
#44 = CARTESIAN_POINT ( 'NONE',  ( 0.000000000000000000, 2.000000000000000000, 0.000000000000000000 ) ) ;
#45 = DIRECTION ( 'NONE',  ( -0.000000000000000000, -1.000000000000000000, -0.000000000000000000 ) ) ;
#46 = DIRECTION ( 'NONE',  ( -0.000000000000000000, 1.000000000000000000, -0.000000000000000000 ) ) ;
#47 = VERTEX_POINT ( 'NONE', #195 ) ;
#48 = LINE ( 'NONE', #845, #515 ) ;
#49 = DIRECTION ( 'NONE',  ( 0.000000000000000000, 0.000000000000000000, -1.000000000000000000 ) ) ;
#50 = CIRCLE ( 'NONE', #293, 31.50000000000000000 ) ;
#51 = EDGE_LOOP ( 'NONE', ( #76, #595, #128, #251 ) ) ;
#52 = CIRCLE ( 'NONE', #778, 28.00000000000000000 ) ;
#53 = AXIS2_PLACEMENT_3D ( 'NONE', #320, #249, #183 ) ;
#54 = CARTESIAN_POINT ( 'NONE',  ( 0.000000000000000000, 2.600000000000001421, 0.000000000000000000 ) ) ;
#55 = AXIS2_PLACEMENT_3D ( 'NONE', #584, #168, #311 ) ;
#56 = VECTOR ( 'NONE', #171, 1000.000000000000000 ) ;
#57 = CARTESIAN_POINT ( 'NONE',  ( 2.795256319053833780E-15, 2.600000000000001421, 22.82499999999999929 ) ) ;
#58 = CARTESIAN_POINT ( 'NONE',  ( -17.32499999999999218, 3.099999999999998757, 17.32499999999999929 ) ) ;
#59 = EDGE_CURVE ( 'NONE', #442, #297, #127, .T. ) ;
#60 = ORIENTED_EDGE ( 'NONE', *, *, #630, .F. ) ;
#61 = DIRECTION ( 'NONE',  ( 0.000000000000000000, 0.000000000000000000, -1.000000000000000000 ) ) ;
#62 = DIRECTION ( 'NONE',  ( -0.000000000000000000, 1.000000000000000000, -0.000000000000000000 ) ) ;
#63 = CARTESIAN_POINT ( 'NONE',  ( 17.32499999999999929, 8.100000000000003197, -17.32500000000000639 ) ) ;
#64 = ADVANCED_FACE ( 'NONE', ( #479 ), #688, .F. ) ;
#65 = ORIENTED_EDGE ( 'NONE', *, *, #229, .F. ) ;
#66 = DIRECTION ( 'NONE',  ( -0.000000000000000000, -1.000000000000000000, -0.000000000000000000 ) ) ;
#67 = CARTESIAN_POINT ( 'NONE',  ( 0.000000000000000000, 0.000000000000000000, 0.000000000000000000 ) ) ;
#68 = VERTEX_POINT ( 'NONE', #326 ) ;
#69 = DIRECTION ( 'NONE',  ( 0.000000000000000000, 0.000000000000000000, -1.000000000000000000 ) ) ;
#70 = DIRECTION ( 'NONE',  ( -0.000000000000000000, 1.000000000000000000, -0.000000000000000000 ) ) ;
#71 = ORIENTED_EDGE ( 'NONE', *, *, #447, .T. ) ;
#72 = APPLICATION_PROTOCOL_DEFINITION ( 'draft international standard', 'automotive_design', 1998, #551 ) ;
#73 = ADVANCED_FACE ( 'NONE', ( #771 ), #602, .F. ) ;
#74 = CYLINDRICAL_SURFACE ( 'NONE', #105, 0.5499999999999914957 ) ;
#75 = CARTESIAN_POINT ( 'NONE',  ( -17.32499999999999574, 3.099999999999998757, -17.32499999999999929 ) ) ;
#76 = ORIENTED_EDGE ( 'NONE', *, *, #188, .F. ) ;
#77 = CARTESIAN_POINT ( 'NONE',  ( 0.000000000000000000, 2.000000000000000000, 0.000000000000000000 ) ) ;
#78 = EDGE_CURVE ( 'NONE', #484, #694, #623, .T. ) ;
#79 = DIRECTION ( 'NONE',  ( -0.000000000000000000, -1.000000000000000000, -0.000000000000000000 ) ) ;
#80 = ORIENTED_EDGE ( 'NONE', *, *, #107, .T. ) ;
#81 = AXIS2_PLACEMENT_3D ( 'NONE', #798, #151, #726 ) ;
#82 = CIRCLE ( 'NONE', #174, 28.00000000000000000 ) ;
#83 = AXIS2_PLACEMENT_3D ( 'NONE', #608, #900, #535 ) ;
#84 = DIRECTION ( 'NONE',  ( -0.000000000000000000, 1.000000000000000000, -0.000000000000000000 ) ) ;
#85 = ADVANCED_FACE ( 'NONE', ( #698, #408 ), #179, .F. ) ;
#86 = EDGE_LOOP ( 'NONE', ( #322, #3, #518, #570 ) ) ;
#87 = EDGE_LOOP ( 'NONE', ( #549, #205 ) ) ;
#88 = CARTESIAN_POINT ( 'NONE',  ( -17.32499999999999218, 8.100000000000001421, 17.32499999999999929 ) ) ;
#89 = LINE ( 'NONE', #222, #913 ) ;
#90 = VERTEX_POINT ( 'NONE', #915 ) ;
#91 = EDGE_CURVE ( 'NONE', #467, #594, #372, .T. ) ;
#92 = ORIENTED_EDGE ( 'NONE', *, *, #136, .F. ) ;
#93 = CARTESIAN_POINT ( 'NONE',  ( 17.32499999999999929, 3.099999999999998757, -17.87500000000000711 ) ) ;
#94 = FILL_AREA_STYLE_COLOUR ( '', #731 ) ;
#95 = LINE ( 'NONE', #588, #176 ) ;
#96 = PRODUCT ( 'Leica_M-FX_Adapter', 'Leica_M-FX_Adapter', '', ( #219 ) ) ;
#97 = ORIENTED_EDGE ( 'NONE', *, *, #855, .T. ) ;
#98 = EDGE_LOOP ( 'NONE', ( #39, #210, #556, #343 ) ) ;
#99 = ADVANCED_FACE ( 'NONE', ( #336 ), #617, .F. ) ;
#100 = CARTESIAN_POINT ( 'NONE',  ( 17.32500000000000639, 3.099999999999998757, 17.32499999999999574 ) ) ;
#101 = VECTOR ( 'NONE', #45, 1000.000000000000000 ) ;
#102 = DIRECTION ( 'NONE',  ( 0.000000000000000000, 0.000000000000000000, 1.000000000000000000 ) ) ;
#103 = CIRCLE ( 'NONE', #605, 27.10000000000000142 ) ;
#104 = ORIENTED_EDGE ( 'NONE', *, *, #914, .F. ) ;
#105 = AXIS2_PLACEMENT_3D ( 'NONE', #230, #163, #510 ) ;
#106 = CARTESIAN_POINT ( 'NONE',  ( 17.32499999999999929, 8.100000000000003197, -17.87499999999999645 ) ) ;
#107 = EDGE_CURVE ( 'NONE', #484, #714, #462, .T. ) ;
#108 = DIRECTION ( 'NONE',  ( 0.000000000000000000, 0.000000000000000000, -1.000000000000000000 ) ) ;
#109 = DIRECTION ( 'NONE',  ( 0.000000000000000000, 0.5150380749100562650, 0.8571673007021111124 ) ) ;
#110 = DIRECTION ( 'NONE',  ( -0.000000000000000000, -1.000000000000000000, -0.000000000000000000 ) ) ;
#111 = DIRECTION ( 'NONE',  ( -0.000000000000000000, -1.000000000000000000, -0.000000000000000000 ) ) ;
#112 = ORIENTED_EDGE ( 'NONE', *, *, #197, .T. ) ;
#113 = CARTESIAN_POINT ( 'NONE',  ( 2.795256319053833780E-15, 0.000000000000000000, 22.82499999999999929 ) ) ;
#114 = CARTESIAN_POINT ( 'NONE',  ( 3.429011037612589276E-15, 2.000000000000000000, 28.00000000000000000 ) ) ;
#115 = FACE_OUTER_BOUND ( 'NONE', #471, .T. ) ;
#116 = CIRCLE ( 'NONE', #839, 28.00000000000000000 ) ;
#117 = ADVANCED_FACE ( 'NONE', ( #682 ), #621, .F. ) ;
#118 = AXIS2_PLACEMENT_3D ( 'NONE', #908, #398, #268 ) ;
#119 = EDGE_LOOP ( 'NONE', ( #15, #664 ) ) ;
#120 = AXIS2_PLACEMENT_3D ( 'NONE', #648, #1, #435 ) ;
#121 = CARTESIAN_POINT ( 'NONE',  ( 7.874007874011816455, 2.000000000000000000, -30.50000000000000000 ) ) ;
#122 = DIRECTION ( 'NONE',  ( 0.000000000000000000, 0.000000000000000000, 1.000000000000000000 ) ) ;
#123 = ORIENTED_EDGE ( 'NONE', *, *, #160, .T. ) ;
#124 = PRODUCT_RELATED_PRODUCT_CATEGORY ( 'part', '', ( #96 ) ) ;
#125 = DIRECTION ( 'NONE',  ( -0.000000000000000000, 1.000000000000000000, -0.000000000000000000 ) ) ;
#126 = CARTESIAN_POINT ( 'NONE',  ( 0.000000000000000000, 0.000000000000000000, -21.69999999999999929 ) ) ;
#127 = LINE ( 'NONE', #903, #793 ) ;
#128 = ORIENTED_EDGE ( 'NONE', *, *, #393, .T. ) ;
#129 = CYLINDRICAL_SURFACE ( 'NONE', #457, 21.69999999999999929 ) ;
#130 = ADVANCED_FACE ( 'NONE', ( #394 ), #680, .F. ) ;
#131 = DIRECTION ( 'NONE',  ( -0.000000000000000000, 1.000000000000000000, -0.000000000000000000 ) ) ;
#132 = AXIS2_PLACEMENT_3D ( 'NONE', #828, #182, #836 ) ;
#133 = ORIENTED_EDGE ( 'NONE', *, *, #291, .F. ) ;
#134 = AXIS2_PLACEMENT_3D ( 'NONE', #636, #695, #924 ) ;
#135 = CARTESIAN_POINT ( 'NONE',  ( 0.000000000000000000, -4.200000000000000178, 0.000000000000000000 ) ) ;
#136 = EDGE_CURVE ( 'NONE', #406, #232, #206, .T. ) ;
#137 = DIRECTION ( 'NONE',  ( 0.000000000000000000, 0.000000000000000000, 1.000000000000000000 ) ) ;
#138 = ORIENTED_EDGE ( 'NONE', *, *, #11, .T. ) ;
#139 = FACE_BOUND ( 'NONE', #434, .T. ) ;
#140 = CARTESIAN_POINT ( 'NONE',  ( -7.874007874011814678, -4.200000000000000178, -30.50000000000000000 ) ) ;
#141 = VERTEX_POINT ( 'NONE', #722 ) ;
#142 = DIRECTION ( 'NONE',  ( 0.000000000000000000, 0.000000000000000000, -1.000000000000000000 ) ) ;
#143 = DIRECTION ( 'NONE',  ( -0.000000000000000000, -1.000000000000000000, -0.000000000000000000 ) ) ;
#144 = CARTESIAN_POINT ( 'NONE',  ( 0.000000000000000000, 8.100000000000001421, -27.10000000000000142 ) ) ;
#145 = ORIENTED_EDGE ( 'NONE', *, *, #146, .T. ) ;
#146 = EDGE_CURVE ( 'NONE', #360, #505, #359, .T. ) ;
#147 = AXIS2_PLACEMENT_3D ( 'NONE', #554, #143, #431 ) ;
#148 = PLANE ( 'NONE',  #192 ) ;
#149 = VERTEX_POINT ( 'NONE', #483 ) ;
#150 = EDGE_CURVE ( 'NONE', #923, #815, #38, .T. ) ;
#151 = DIRECTION ( 'NONE',  ( -0.000000000000000000, 1.000000000000000000, -0.000000000000000000 ) ) ;
#152 = ORIENTED_EDGE ( 'NONE', *, *, #522, .F. ) ;
#153 = EDGE_CURVE ( 'NONE', #68, #333, #774, .T. ) ;
#154 = CARTESIAN_POINT ( 'NONE',  ( 17.32500000000000639, 8.100000000000003197, 16.77500000000000924 ) ) ;
#155 = EDGE_LOOP ( 'NONE', ( #10, #891 ) ) ;
#156 = AXIS2_PLACEMENT_3D ( 'NONE', #208, #811, #662 ) ;
#157 = DIRECTION ( 'NONE',  ( -0.000000000000000000, -1.000000000000000000, -0.000000000000000000 ) ) ;
#158 = CIRCLE ( 'NONE', #868, 18.99999999999999645 ) ;
#159 = FACE_OUTER_BOUND ( 'NONE', #255, .T. ) ;
#160 = EDGE_CURVE ( 'NONE', #169, #414, #810, .T. ) ;
#161 = ORIENTED_EDGE ( 'NONE', *, *, #574, .F. ) ;
#162 = ORIENTED_EDGE ( 'NONE', *, *, #309, .T. ) ;
#163 = DIRECTION ( 'NONE',  ( -0.000000000000000000, 1.000000000000000000, -0.000000000000000000 ) ) ;
#164 = CARTESIAN_POINT ( 'NONE',  ( -17.32499999999999218, 8.100000000000003197, 17.32499999999999929 ) ) ;
#165 = EDGE_LOOP ( 'NONE', ( #525, #772 ) ) ;
#166 = ORIENTED_EDGE ( 'NONE', *, *, #393, .F. ) ;
#167 = DIRECTION ( 'NONE',  ( 0.000000000000000000, 0.000000000000000000, 1.000000000000000000 ) ) ;
#168 = DIRECTION ( 'NONE',  ( -0.000000000000000000, 1.000000000000000000, -0.000000000000000000 ) ) ;
#169 = VERTEX_POINT ( 'NONE', #428 ) ;
#170 = EDGE_CURVE ( 'NONE', #738, #399, #883, .T. ) ;
#171 = DIRECTION ( 'NONE',  ( -0.000000000000000000, -1.000000000000000000, -0.000000000000000000 ) ) ;
#172 = FACE_OUTER_BOUND ( 'NONE', #16, .T. ) ;
#173 = ADVANCED_BREP_SHAPE_REPRESENTATION ( 'Leica_M-FX_Adapter', ( #628, #433 ), #233 ) ;
#174 = AXIS2_PLACEMENT_3D ( 'NONE', #477, #708, #142 ) ;
#175 = CARTESIAN_POINT ( 'NONE',  ( 0.000000000000000000, 0.000000000000000000, 0.000000000000000000 ) ) ;
#176 = VECTOR ( 'NONE', #675, 1000.000000000000000 ) ;
#177 = FACE_OUTER_BOUND ( 'NONE', #155, .T. ) ;
#178 = CARTESIAN_POINT ( 'NONE',  ( 2.326828918379970576E-15, -4.200000000000000178, 18.99999999999999645 ) ) ;
#179 = PLANE ( 'NONE',  #927 ) ;
#180 = VERTEX_POINT ( 'NONE', #144 ) ;
#181 = CARTESIAN_POINT ( 'NONE',  ( -17.32499999999999218, 3.099999999999998757, 17.87500000000000000 ) ) ;
#182 = DIRECTION ( 'NONE',  ( 0.000000000000000000, 1.000000000000000000, 0.000000000000000000 ) ) ;
#183 = DIRECTION ( 'NONE',  ( 0.000000000000000000, 0.000000000000000000, -1.000000000000000000 ) ) ;
#184 = EDGE_LOOP ( 'NONE', ( #814, #887, #508, #799 ) ) ;
#185 = DIRECTION ( 'NONE',  ( -0.000000000000000000, -1.000000000000000000, -0.000000000000000000 ) ) ;
#186 = UNCERTAINTY_MEASURE_WITH_UNIT (LENGTH_MEASURE( 1.000000000000000082E-05 ), #289, 'distance_accuracy_value', 'NONE');
#187 = DIRECTION ( 'NONE',  ( -0.000000000000000000, 1.000000000000000000, -0.000000000000000000 ) ) ;
#188 = EDGE_CURVE ( 'NONE', #399, #878, #634, .T. ) ;
#189 = DIRECTION ( 'NONE',  ( 0.000000000000000000, 0.000000000000000000, 1.000000000000000000 ) ) ;
#190 = AXIS2_PLACEMENT_3D ( 'NONE', #100, #34, #673 ) ;
#191 = ORIENTED_EDGE ( 'NONE', *, *, #245, .T. ) ;
#192 = AXIS2_PLACEMENT_3D ( 'NONE', #140, #355, #347 ) ;
#193 = CARTESIAN_POINT ( 'NONE',  ( 0.000000000000000000, 9.550000000000000711, 0.000000000000000000 ) ) ;
#194 = LINE ( 'NONE', #35, #101 ) ;
#195 = CARTESIAN_POINT ( 'NONE',  ( 17.32499999999999929, 8.100000000000003197, -16.77500000000001990 ) ) ;
#196 = EDGE_LOOP ( 'NONE', ( #649, #480, #162, #513 ) ) ;
#197 = EDGE_CURVE ( 'NONE', #227, #376, #363, .T. ) ;
#198 = FACE_OUTER_BOUND ( 'NONE', #244, .T. ) ;
#199 = CARTESIAN_POINT ( 'NONE',  ( 17.32500000000000639, 8.100000000000003197, 17.87499999999998579 ) ) ;
#200 = VERTEX_POINT ( 'NONE', #286 ) ;
#201 = CARTESIAN_POINT ( 'NONE',  ( 17.32500000000000639, 8.100000000000001421, 16.77500000000000568 ) ) ;
#202 = FACE_OUTER_BOUND ( 'NONE', #631, .T. ) ;
#203 = CARTESIAN_POINT ( 'NONE',  ( -17.32499999999999574, 8.100000000000001421, -17.87499999999999645 ) ) ;
#204 = AXIS2_PLACEMENT_3D ( 'NONE', #703, #622, #850 ) ;
#205 = ORIENTED_EDGE ( 'NONE', *, *, #91, .F. ) ;
#206 = CIRCLE ( 'NONE', #750, 0.5499999999999880540 ) ;
#207 = CARTESIAN_POINT ( 'NONE',  ( 0.000000000000000000, 2.600000000000001421, -18.99999999999999645 ) ) ;
#208 = CARTESIAN_POINT ( 'NONE',  ( 0.000000000000000000, 0.000000000000000000, 0.000000000000000000 ) ) ;
#209 = DIRECTION ( 'NONE',  ( -0.000000000000000000, 1.000000000000000000, -0.000000000000000000 ) ) ;
#210 = ORIENTED_EDGE ( 'NONE', *, *, #630, .T. ) ;
#211 = DIRECTION ( 'NONE',  ( -0.000000000000000000, -1.000000000000000000, -0.000000000000000000 ) ) ;
#212 = CYLINDRICAL_SURFACE ( 'NONE', #718, 27.10000000000000142 ) ;
#213 = ADVANCED_FACE ( 'NONE', ( #275, #928 ), #560, .T. ) ;
#214 = EDGE_LOOP ( 'NONE', ( #844, #112, #43 ) ) ;
#215 = LINE ( 'NONE', #498, #280 ) ;
#216 = ADVANCED_FACE ( 'NONE', ( #710 ), #148, .F. ) ;
#217 = EDGE_LOOP ( 'NONE', ( #739, #803, #500, #236 ) ) ;
#218 = AXIS2_PLACEMENT_3D ( 'NONE', #805, #303, #519 ) ;
#219 = PRODUCT_CONTEXT ( 'NONE', #551, 'mechanical' ) ;
#220 = AXIS2_PLACEMENT_3D ( 'NONE', #164, #383, #572 ) ;
#221 = AXIS2_PLACEMENT_3D ( 'NONE', #407, #387, #755 ) ;
#222 = CARTESIAN_POINT ( 'NONE',  ( 2.326828918379970576E-15, 0.000000000000000000, 18.99999999999999645 ) ) ;
#223 = ORIENTED_EDGE ( 'NONE', *, *, #269, .F. ) ;
#224 = EDGE_CURVE ( 'NONE', #670, #505, #215, .T. ) ;
#225 =( NAMED_UNIT ( * ) SI_UNIT ( $, .STERADIAN. ) SOLID_ANGLE_UNIT ( ) );
#226 = DIRECTION ( 'NONE',  ( 0.000000000000000000, 0.000000000000000000, 1.000000000000000000 ) ) ;
#227 = VERTEX_POINT ( 'NONE', #922 ) ;
#228 = EDGE_LOOP ( 'NONE', ( #337, #314, #26, #541 ) ) ;
#229 = EDGE_CURVE ( 'NONE', #733, #455, #516, .T. ) ;
#230 = CARTESIAN_POINT ( 'NONE',  ( 17.32500000000000639, 8.100000000000001421, 17.32499999999999574 ) ) ;
#231 = DIRECTION ( 'NONE',  ( -0.000000000000000000, 1.000000000000000000, -0.000000000000000000 ) ) ;
#232 = VERTEX_POINT ( 'NONE', #199 ) ;
#233 =( GEOMETRIC_REPRESENTATION_CONTEXT ( 3 ) GLOBAL_UNCERTAINTY_ASSIGNED_CONTEXT ( ( #13 ) ) GLOBAL_UNIT_ASSIGNED_CONTEXT ( ( #804, #288, #380 ) ) REPRESENTATION_CONTEXT ( 'NONE', 'WORKASPACE' ) );
#234 = FACE_OUTER_BOUND ( 'NONE', #603, .T. ) ;
#235 = DIRECTION ( 'NONE',  ( -0.000000000000000000, 1.000000000000000000, -0.000000000000000000 ) ) ;
#236 = ORIENTED_EDGE ( 'NONE', *, *, #447, .F. ) ;
#237 = ORIENTED_EDGE ( 'NONE', *, *, #321, .T. ) ;
#238 = DIRECTION ( 'NONE',  ( -0.000000000000000000, -1.000000000000000000, -0.000000000000000000 ) ) ;
#239 = LINE ( 'NONE', #520, #657 ) ;
#240 = EDGE_CURVE ( 'NONE', #149, #141, #607, .T. ) ;
#241 = ORIENTED_EDGE ( 'NONE', *, *, #813, .T. ) ;
#242 = CARTESIAN_POINT ( 'NONE',  ( -17.32499999999999218, 3.099999999999998757, 16.77500000000000213 ) ) ;
#243 = CARTESIAN_POINT ( 'NONE',  ( 17.32499999999999929, 8.100000000000001421, -17.32500000000000639 ) ) ;
#244 = EDGE_LOOP ( 'NONE', ( #782, #283, #550, #809 ) ) ;
#245 = EDGE_CURVE ( 'NONE', #676, #47, #445, .T. ) ;
#246 = CYLINDRICAL_SURFACE ( 'NONE', #444, 28.00000000000000000 ) ;
#247 = CIRCLE ( 'NONE', #81, 0.5499999999999983791 ) ;
#248 = VECTOR ( 'NONE', #740, 1000.000000000000000 ) ;
#249 = DIRECTION ( 'NONE',  ( -0.000000000000000000, -1.000000000000000000, -0.000000000000000000 ) ) ;
#250 = CIRCLE ( 'NONE', #898, 21.69999999999999929 ) ;
#251 = ORIENTED_EDGE ( 'NONE', *, *, #475, .T. ) ;
#252 = ADVANCED_FACE ( 'NONE', ( #705 ), #474, .F. ) ;
#253 = DIRECTION ( 'NONE',  ( 0.000000000000000000, -1.000000000000000000, 0.000000000000000000 ) ) ;
#254 = DIRECTION ( 'NONE',  ( -0.000000000000000000, -1.000000000000000000, -0.000000000000000000 ) ) ;
#255 = EDGE_LOOP ( 'NONE', ( #384, #613, #760 ) ) ;
#256 = DIRECTION ( 'NONE',  ( -0.000000000000000000, -1.000000000000000000, -0.000000000000000000 ) ) ;
#257 = ADVANCED_FACE ( 'NONE', ( #713 ), #212, .F. ) ;
#258 = DIRECTION ( 'NONE',  ( -0.000000000000000000, 1.000000000000000000, -0.000000000000000000 ) ) ;
#259 = DIRECTION ( 'NONE',  ( -0.000000000000000000, -1.000000000000000000, -0.000000000000000000 ) ) ;
#260 = VERTEX_POINT ( 'NONE', #496 ) ;
#261 = DIRECTION ( 'NONE',  ( 0.000000000000000000, -1.000000000000000000, -0.000000000000000000 ) ) ;
#262 = FACE_OUTER_BOUND ( 'NONE', #33, .T. ) ;
#263 = DIRECTION ( 'NONE',  ( -0.000000000000000000, 1.000000000000000000, -0.000000000000000000 ) ) ;
#264 = AXIS2_PLACEMENT_3D ( 'NONE', #769, #125, #411 ) ;
#265 = VECTOR ( 'NONE', #857, 1000.000000000000000 ) ;
#266 = ORIENTED_EDGE ( 'NONE', *, *, #797, .F. ) ;
#267 = CYLINDRICAL_SURFACE ( 'NONE', #264, 0.5499999999999949374 ) ;
#268 = DIRECTION ( 'NONE',  ( 0.000000000000000000, 0.000000000000000000, 1.000000000000000000 ) ) ;
#269 = EDGE_CURVE ( 'NONE', #878, #90, #373, .T. ) ;
#270 = ORIENTED_EDGE ( 'NONE', *, *, #753, .F. ) ;
#271 = CARTESIAN_POINT ( 'NONE',  ( -7.874007874011814678, 2.000000000000000000, -30.50000000000000000 ) ) ;
#272 = DIRECTION ( 'NONE',  ( -0.000000000000000000, -1.000000000000000000, -0.000000000000000000 ) ) ;
#273 = VERTEX_POINT ( 'NONE', #806 ) ;
#274 = DIRECTION ( 'NONE',  ( -0.000000000000000000, -1.000000000000000000, -0.000000000000000000 ) ) ;
#275 = FACE_OUTER_BOUND ( 'NONE', #609, .T. ) ;
#276 = AXIS2_PLACEMENT_3D ( 'NONE', #88, #666, #167 ) ;
#277 = ORIENTED_EDGE ( 'NONE', *, *, #78, .F. ) ;
#278 = CIRCLE ( 'NONE', #22, 27.10000000000000142 ) ;
#279 = FACE_OUTER_BOUND ( 'NONE', #443, .T. ) ;
#280 = VECTOR ( 'NONE', #781, 1000.000000000000000 ) ;
#281 = ADVANCED_FACE ( 'NONE', ( #439 ), #672, .F. ) ;
#282 = DIRECTION ( 'NONE',  ( 0.000000000000000000, 0.000000000000000000, -1.000000000000000000 ) ) ;
#283 = ORIENTED_EDGE ( 'NONE', *, *, #2, .T. ) ;
#284 = DIRECTION ( 'NONE',  ( -0.000000000000000000, 1.000000000000000000, -0.000000000000000000 ) ) ;
#285 = EDGE_CURVE ( 'NONE', #455, #866, #28, .T. ) ;
#286 = CARTESIAN_POINT ( 'NONE',  ( 3.318792825689327485E-15, 8.100000000000001421, 27.10000000000000142 ) ) ;
#287 = ORIENTED_EDGE ( 'NONE', *, *, #91, .T. ) ;
#288 =( NAMED_UNIT ( * ) PLANE_ANGLE_UNIT ( ) SI_UNIT ( $, .RADIAN. ) );
#289 =( LENGTH_UNIT ( ) NAMED_UNIT ( * ) SI_UNIT ( .MILLI., .METRE. ) );
#290 = DIRECTION ( 'NONE',  ( 0.000000000000000000, -1.000000000000000000, 0.000000000000000000 ) ) ;
#291 = EDGE_CURVE ( 'NONE', #670, #790, #95, .T. ) ;
#292 = ORIENTED_EDGE ( 'NONE', *, *, #245, .F. ) ;
#293 = AXIS2_PLACEMENT_3D ( 'NONE', #31, #819, #319 ) ;
#294 = DIRECTION ( 'NONE',  ( 0.000000000000000000, 0.000000000000000000, 1.000000000000000000 ) ) ;
#295 = LINE ( 'NONE', #721, #894 ) ;
#296 = CARTESIAN_POINT ( 'NONE',  ( 17.32499999999999929, 3.099999999999998757, -17.32500000000000639 ) ) ;
#297 = VERTEX_POINT ( 'NONE', #504 ) ;
#298 = EDGE_CURVE ( 'NONE', #376, #919, #25, .T. ) ;
#299 = CARTESIAN_POINT ( 'NONE',  ( 0.000000000000000000, 0.000000000000000000, -18.99999999999999645 ) ) ;
#300 = CARTESIAN_POINT ( 'NONE',  ( -17.32499999999999218, 8.100000000000001421, 17.87499999999999645 ) ) ;
#301 = ORIENTED_EDGE ( 'NONE', *, *, #855, .F. ) ;
#302 = DIRECTION ( 'NONE',  ( 0.000000000000000000, 0.000000000000000000, -1.000000000000000000 ) ) ;
#303 = DIRECTION ( 'NONE',  ( 0.000000000000000000, 1.000000000000000000, 0.000000000000000000 ) ) ;
#304 = CARTESIAN_POINT ( 'NONE',  ( 17.32499999999999929, 3.099999999999998757, -17.32500000000000639 ) ) ;
#305 = ORIENTED_EDGE ( 'NONE', *, *, #552, .T. ) ;
#306 = EDGE_LOOP ( 'NONE', ( #618, #547 ) ) ;
#307 = AXIS2_PLACEMENT_3D ( 'NONE', #54, #274, #548 ) ;
#308 = DIRECTION ( 'NONE',  ( -0.000000000000000000, 1.000000000000000000, -0.000000000000000000 ) ) ;
#309 = EDGE_CURVE ( 'NONE', #882, #273, #40, .T. ) ;
#310 = AXIS2_PLACEMENT_3D ( 'NONE', #75, #432, #137 ) ;
#311 = DIRECTION ( 'NONE',  ( 0.000000000000000000, 0.000000000000000000, 1.000000000000000000 ) ) ;
#312 = VECTOR ( 'NONE', #746, 1000.000000000000000 ) ;
#313 = ORIENTED_EDGE ( 'NONE', *, *, #269, .T. ) ;
#314 = ORIENTED_EDGE ( 'NONE', *, *, #486, .F. ) ;
#315 = CARTESIAN_POINT ( 'NONE',  ( 0.000000000000000000, 0.000000000000000000, 0.000000000000000000 ) ) ;
#316 = DIRECTION ( 'NONE',  ( 0.000000000000000000, 0.000000000000000000, 1.000000000000000000 ) ) ;
#317 = EDGE_CURVE ( 'NONE', #497, #932, #652, .T. ) ;
#318 = ORIENTED_EDGE ( 'NONE', *, *, #848, .F. ) ;
#319 = DIRECTION ( 'NONE',  ( 0.000000000000000000, 0.000000000000000000, -1.000000000000000000 ) ) ;
#320 = CARTESIAN_POINT ( 'NONE',  ( 0.000000000000000000, 0.000000000000000000, 0.000000000000000000 ) ) ;
#321 = EDGE_CURVE ( 'NONE', #923, #467, #89, .T. ) ;
#322 = ORIENTED_EDGE ( 'NONE', *, *, #907, .T. ) ;
#323 = CARTESIAN_POINT ( 'NONE',  ( 0.000000000000000000, 8.100000000000001421, 0.000000000000000000 ) ) ;
#324 = CIRCLE ( 'NONE', #895, 21.69999999999999929 ) ;
#325 = VECTOR ( 'NONE', #565, 1000.000000000000000 ) ;
#326 = CARTESIAN_POINT ( 'NONE',  ( 2.657483554149756738E-15, 0.000000000000000000, 21.69999999999999929 ) ) ;
#327 = AXIS2_PLACEMENT_3D ( 'NONE', #296, #742, #226 ) ;
#328 = EDGE_LOOP ( 'NONE', ( #138, #421 ) ) ;
#329 = PRODUCT_DEFINITION ( 'UNKNOWN', '', #701, #820 ) ;
#330 = DIRECTION ( 'NONE',  ( 0.000000000000000000, 0.5150380749100562650, 0.8571673007021111124 ) ) ;
#331 = FACE_OUTER_BOUND ( 'NONE', #51, .T. ) ;
#332 = DIRECTION ( 'NONE',  ( -0.000000000000000000, -1.000000000000000000, -0.000000000000000000 ) ) ;
#333 = VERTEX_POINT ( 'NONE', #512 ) ;
#334 = CARTESIAN_POINT ( 'NONE',  ( 0.000000000000000000, 0.000000000000000000, 0.000000000000000000 ) ) ;
#335 = APPLICATION_CONTEXT ( 'automotive_design' ) ;
#336 = FACE_OUTER_BOUND ( 'NONE', #228, .T. ) ;
#337 = ORIENTED_EDGE ( 'NONE', *, *, #843, .F. ) ;
#338 = CARTESIAN_POINT ( 'NONE',  ( -27.10000000000000142, 8.100000000000001421, 0.000000000000000000 ) ) ;
#339 = MECHANICAL_DESIGN_GEOMETRIC_PRESENTATION_REPRESENTATION (  '', ( #624 ), #559 ) ;
#340 = DIRECTION ( 'NONE',  ( 0.000000000000000000, 0.000000000000000000, -1.000000000000000000 ) ) ;
#341 = AXIS2_PLACEMENT_3D ( 'NONE', #466, #259, #531 ) ;
#342 = AXIS2_PLACEMENT_3D ( 'NONE', #881, #507, #658 ) ;
#343 = ORIENTED_EDGE ( 'NONE', *, *, #730, .F. ) ;
#344 = CIRCLE ( 'NONE', #620, 0.5499999999999914957 ) ;
#345 = DIRECTION ( 'NONE',  ( -0.000000000000000000, 1.000000000000000000, -0.000000000000000000 ) ) ;
#346 = EDGE_CURVE ( 'NONE', #714, #273, #869, .T. ) ;
#347 = DIRECTION ( 'NONE',  ( 1.000000000000000000, 0.000000000000000000, 0.000000000000000000 ) ) ;
#348 = ORIENTED_EDGE ( 'NONE', *, *, #848, .T. ) ;
#349 = DIRECTION ( 'NONE',  ( 0.000000000000000000, 0.000000000000000000, 1.000000000000000000 ) ) ;
#350 = DIRECTION ( 'NONE',  ( 0.000000000000000000, 0.000000000000000000, 1.000000000000000000 ) ) ;
#351 = DIRECTION ( 'NONE',  ( -0.000000000000000000, 1.000000000000000000, -0.000000000000000000 ) ) ;
#352 = ORIENTED_EDGE ( 'NONE', *, *, #170, .T. ) ;
#353 = EDGE_CURVE ( 'NONE', #47, #676, #460, .T. ) ;
#354 = CARTESIAN_POINT ( 'NONE',  ( -17.32499999999999574, 8.100000000000003197, -17.87499999999999289 ) ) ;
#355 = DIRECTION ( 'NONE',  ( -0.000000000000000000, 0.000000000000000000, 1.000000000000000000 ) ) ;
#356 = ORIENTED_EDGE ( 'NONE', *, *, #486, .T. ) ;
#357 = AXIS2_PLACEMENT_3D ( 'NONE', #784, #644, #851 ) ;
#358 = CYLINDRICAL_SURFACE ( 'NONE', #134, 0.5499999999999949374 ) ;
#359 = LINE ( 'NONE', #846, #325 ) ;
#360 = VERTEX_POINT ( 'NONE', #517 ) ;
#361 = SURFACE_STYLE_FILL_AREA ( #579 ) ;
#362 = EDGE_CURVE ( 'NONE', #714, #694, #870, .T. ) ;
#363 = LINE ( 'NONE', #487, #912 ) ;
#364 = ORIENTED_EDGE ( 'NONE', *, *, #674, .F. ) ;
#365 = DIRECTION ( 'NONE',  ( -0.000000000000000000, -1.000000000000000000, -0.000000000000000000 ) ) ;
#366 = CARTESIAN_POINT ( 'NONE',  ( 0.000000000000000000, -4.200000000000000178, -18.99999999999999645 ) ) ;
#367 = DIRECTION ( 'NONE',  ( -0.000000000000000000, 1.000000000000000000, -0.000000000000000000 ) ) ;
#368 = ORIENTED_EDGE ( 'NONE', *, *, #598, .T. ) ;
#369 = VECTOR ( 'NONE', #157, 1000.000000000000000 ) ;
#370 = CARTESIAN_POINT ( 'NONE',  ( 2.326828918379970576E-15, 2.600000000000001421, 18.99999999999999645 ) ) ;
#371 = CIRCLE ( 'NONE', #307, 22.82499999999999929 ) ;
#372 = CIRCLE ( 'NONE', #671, 18.99999999999999645 ) ;
#373 = CIRCLE ( 'NONE', #502, 0.5499999999999914957 ) ;
#374 = DIRECTION ( 'NONE',  ( -0.000000000000000000, 1.000000000000000000, -0.000000000000000000 ) ) ;
#375 = ORIENTED_EDGE ( 'NONE', *, *, #59, .F. ) ;
#376 = VERTEX_POINT ( 'NONE', #729 ) ;
#377 = PLANE ( 'NONE',  #218 ) ;
#378 = LINE ( 'NONE', #886, #529 ) ;
#379 = EDGE_LOOP ( 'NONE', ( #641, #838, #626, #385 ) ) ;
#380 =( NAMED_UNIT ( * ) SI_UNIT ( $, .STERADIAN. ) SOLID_ANGLE_UNIT ( ) );
#381 = EDGE_CURVE ( 'NONE', #297, #232, #737, .T. ) ;
#382 = DIRECTION ( 'NONE',  ( 0.000000000000000000, 0.000000000000000000, -1.000000000000000000 ) ) ;
#383 = DIRECTION ( 'NONE',  ( -0.000000000000000000, 1.000000000000000000, -0.000000000000000000 ) ) ;
#384 = ORIENTED_EDGE ( 'NONE', *, *, #654, .F. ) ;
#385 = ORIENTED_EDGE ( 'NONE', *, *, #865, .T. ) ;
#386 = ADVANCED_FACE ( 'NONE', ( #159 ), #420, .F. ) ;
#387 = DIRECTION ( 'NONE',  ( -0.000000000000000000, 1.000000000000000000, -0.000000000000000000 ) ) ;
#388 = DIRECTION ( 'NONE',  ( 0.000000000000000000, 0.000000000000000000, -1.000000000000000000 ) ) ;
#389 = VECTOR ( 'NONE', #454, 1000.000000000000000 ) ;
#390 = ORIENTED_EDGE ( 'NONE', *, *, #78, .T. ) ;
#391 = CARTESIAN_POINT ( 'NONE',  ( 0.000000000000000000, 2.000000000000000000, -28.00000000000000000 ) ) ;
#392 = FACE_OUTER_BOUND ( 'NONE', #86, .T. ) ;
#393 = EDGE_CURVE ( 'NONE', #738, #90, #593, .T. ) ;
#394 = FACE_OUTER_BOUND ( 'NONE', #379, .T. ) ;
#395 = LINE ( 'NONE', #113, #56 ) ;
#396 = FACE_BOUND ( 'NONE', #165, .T. ) ;
#397 = EDGE_CURVE ( 'NONE', #694, #882, #378, .T. ) ;
#398 = DIRECTION ( 'NONE',  ( -0.000000000000000000, 1.000000000000000000, -0.000000000000000000 ) ) ;
#399 = VERTEX_POINT ( 'NONE', #663 ) ;
#400 = DIRECTION ( 'NONE',  ( -0.000000000000000000, -1.000000000000000000, -0.000000000000000000 ) ) ;
#401 = AXIS2_PLACEMENT_3D ( 'NONE', #530, #601, #108 ) ;
#402 = CARTESIAN_POINT ( 'NONE',  ( -17.32499999999999574, 8.100000000000003197, -17.32499999999999929 ) ) ;
#403 = AXIS2_PLACEMENT_3D ( 'NONE', #888, #261, #542 ) ;
#404 = CIRCLE ( 'NONE', #341, 21.69999999999999929 ) ;
#405 = CARTESIAN_POINT ( 'NONE',  ( 17.32499999999999929, 8.100000000000001421, -17.32500000000000639 ) ) ;
#406 = VERTEX_POINT ( 'NONE', #154 ) ;
#407 = CARTESIAN_POINT ( 'NONE',  ( 17.32500000000000639, 8.100000000000003197, 17.32499999999999574 ) ) ;
#408 = FACE_BOUND ( 'NONE', #436, .T. ) ;
#409 = ORIENTED_EDGE ( 'NONE', *, *, #188, .T. ) ;
#410 = EDGE_CURVE ( 'NONE', #442, #711, #239, .T. ) ;
#411 = DIRECTION ( 'NONE',  ( 0.000000000000000000, 0.000000000000000000, 1.000000000000000000 ) ) ;
#412 = CYLINDRICAL_SURFACE ( 'NONE', #20, 0.5499999999999949374 ) ;
#413 = DIRECTION ( 'NONE',  ( 0.000000000000000000, 0.5150380749100562650, 0.8571673007021111124 ) ) ;
#414 = VERTEX_POINT ( 'NONE', #441 ) ;
#415 = PLANE ( 'NONE',  #637 ) ;
#416 = CIRCLE ( 'NONE', #204, 0.5499999999999983791 ) ;
#417 = DIRECTION ( 'NONE',  ( 0.000000000000000000, 0.000000000000000000, 1.000000000000000000 ) ) ;
#418 = VECTOR ( 'NONE', #345, 1000.000000000000000 ) ;
#419 = AXIS2_PLACEMENT_3D ( 'NONE', #175, #332, #340 ) ;
#420 = CONICAL_SURFACE ( 'NONE', #7, 0.5499999999999983791, 1.029744258676652091 ) ;
#421 = ORIENTED_EDGE ( 'NONE', *, *, #150, .T. ) ;
#422 = AXIS2_PLACEMENT_3D ( 'NONE', #678, #469, #41 ) ;
#423 = CARTESIAN_POINT ( 'NONE',  ( -7.874007874011814678, -4.200000000000000178, -30.50000000000000000 ) ) ;
#424 = CARTESIAN_POINT ( 'NONE',  ( 0.000000000000000000, 2.600000000000001421, 0.000000000000000000 ) ) ;
#425 = EDGE_CURVE ( 'NONE', #333, #932, #250, .T. ) ;
#426 = EDGE_LOOP ( 'NONE', ( #581, #237, #287, #161 ) ) ;
#427 = DIRECTION ( 'NONE',  ( 0.000000000000000000, 0.000000000000000000, -1.000000000000000000 ) ) ;
#428 = CARTESIAN_POINT ( 'NONE',  ( 2.795256319053833780E-15, 8.100000000000001421, 22.82499999999999929 ) ) ;
#429 = ORIENTED_EDGE ( 'NONE', *, *, #598, .F. ) ;
#430 = DIRECTION ( 'NONE',  ( 0.000000000000000000, 0.000000000000000000, -1.000000000000000000 ) ) ;
#431 = DIRECTION ( 'NONE',  ( 0.000000000000000000, 0.000000000000000000, -1.000000000000000000 ) ) ;
#432 = DIRECTION ( 'NONE',  ( -0.000000000000000000, 1.000000000000000000, -0.000000000000000000 ) ) ;
#433 = AXIS2_PLACEMENT_3D ( 'NONE', #735, #294, #571 ) ;
#434 = EDGE_LOOP ( 'NONE', ( #719, #223 ) ) ;
#435 = DIRECTION ( 'NONE',  ( 0.000000000000000000, 0.000000000000000000, -1.000000000000000000 ) ) ;
#436 = EDGE_LOOP ( 'NONE', ( #532, #536 ) ) ;
#437 = EDGE_CURVE ( 'NONE', #694, #714, #247, .T. ) ;
#438 = CARTESIAN_POINT ( 'NONE',  ( -17.32499999999999218, 8.100000000000003197, 17.32499999999999929 ) ) ;
#439 = FACE_OUTER_BOUND ( 'NONE', #452, .T. ) ;
#440 = ORIENTED_EDGE ( 'NONE', *, *, #362, .T. ) ;
#441 = CARTESIAN_POINT ( 'NONE',  ( 0.000000000000000000, 8.100000000000001421, -22.82499999999999929 ) ) ;
#442 = VERTEX_POINT ( 'NONE', #538 ) ;
#443 = EDGE_LOOP ( 'NONE', ( #152, #409, #313, #166 ) ) ;
#444 = AXIS2_PLACEMENT_3D ( 'NONE', #44, #766, #614 ) ;
#445 = CIRCLE ( 'NONE', #640, 0.5499999999999880540 ) ;
#446 = CARTESIAN_POINT ( 'NONE',  ( -17.32499999999999574, 8.100000000000001421, -16.77500000000000568 ) ) ;
#447 = EDGE_CURVE ( 'NONE', #141, #180, #194, .T. ) ;
#448 = ORIENTED_EDGE ( 'NONE', *, *, #691, .T. ) ;
#449 = VERTEX_POINT ( 'NONE', #616 ) ;
#450 = CYLINDRICAL_SURFACE ( 'NONE', #276, 0.5499999999999949374 ) ;
#451 = DIRECTION ( 'NONE',  ( -0.000000000000000000, 1.000000000000000000, -0.000000000000000000 ) ) ;
#452 = EDGE_LOOP ( 'NONE', ( #910, #786, #767 ) ) ;
#453 = CARTESIAN_POINT ( 'NONE',  ( 0.000000000000000000, 0.000000000000000000, -22.82499999999999929 ) ) ;
#454 = DIRECTION ( 'NONE',  ( -0.000000000000000000, -1.000000000000000000, -0.000000000000000000 ) ) ;
#455 = VERTEX_POINT ( 'NONE', #114 ) ;
#456 = CIRCLE ( 'NONE', #514, 27.10000000000000142 ) ;
#457 = AXIS2_PLACEMENT_3D ( 'NONE', #783, #557, #430 ) ;
#458 = ADVANCED_FACE ( 'NONE', ( #534 ), #465, .T. ) ;
#459 = LINE ( 'NONE', #537, #807 ) ;
#460 = CIRCLE ( 'NONE', #342, 0.5499999999999880540 ) ;
#461 = CARTESIAN_POINT ( 'NONE',  ( 17.32500000000000639, 3.099999999999998757, 17.32499999999999574 ) ) ;
#462 = LINE ( 'NONE', #756, #489 ) ;
#463 = DIRECTION ( 'NONE',  ( -0.000000000000000000, -1.000000000000000000, -0.000000000000000000 ) ) ;
#464 = ADVANCED_FACE ( 'NONE', ( #396, #172 ), #841, .F. ) ;
#465 = CYLINDRICAL_SURFACE ( 'NONE', #401, 28.00000000000000000 ) ;
#466 = CARTESIAN_POINT ( 'NONE',  ( 0.000000000000000000, 0.000000000000000000, 0.000000000000000000 ) ) ;
#467 = VERTEX_POINT ( 'NONE', #178 ) ;
#468 = DIRECTION ( 'NONE',  ( 0.000000000000000000, 0.000000000000000000, 1.000000000000000000 ) ) ;
#469 = DIRECTION ( 'NONE',  ( -0.000000000000000000, -1.000000000000000000, -0.000000000000000000 ) ) ;
#470 = ORIENTED_EDGE ( 'NONE', *, *, #362, .F. ) ;
#471 = EDGE_LOOP ( 'NONE', ( #60, #301, #822, #817 ) ) ;
#472 = FACE_OUTER_BOUND ( 'NONE', #184, .T. ) ;
#473 = CARTESIAN_POINT ( 'NONE',  ( -17.32499999999999218, 3.099999999999998757, 16.77500000000000213 ) ) ;
#474 = CONICAL_SURFACE ( 'NONE', #591, 0.5499999999999983791, 1.029744258676652091 ) ;
#475 = EDGE_CURVE ( 'NONE', #90, #878, #344, .T. ) ;
#476 = ORIENTED_EDGE ( 'NONE', *, *, #897, .F. ) ;
#477 = CARTESIAN_POINT ( 'NONE',  ( 0.000000000000000000, 2.000000000000000000, 0.000000000000000000 ) ) ;
#478 = CARTESIAN_POINT ( 'NONE',  ( -17.32499999999999218, 2.769526659534839563, 17.32499999999999929 ) ) ;
#479 = FACE_OUTER_BOUND ( 'NONE', #635, .T. ) ;
#480 = ORIENTED_EDGE ( 'NONE', *, *, #397, .T. ) ;
#481 = FACE_BOUND ( 'NONE', #8, .T. ) ;
#482 = CYLINDRICAL_SURFACE ( 'NONE', #147, 18.99999999999999645 ) ;
#483 = CARTESIAN_POINT ( 'NONE',  ( 3.318792825689327485E-15, 9.550000000000000711, 27.10000000000000142 ) ) ;
#484 = VERTEX_POINT ( 'NONE', #478 ) ;
#485 = LINE ( 'NONE', #720, #248 ) ;
#486 = EDGE_CURVE ( 'NONE', #297, #711, #604, .T. ) ;
#487 = CARTESIAN_POINT ( 'NONE',  ( 17.32499999999999929, 3.099999999999998757, -16.77500000000000924 ) ) ;
#488 = VECTOR ( 'NONE', #463, 1000.000000000000000 ) ;
#489 = VECTOR ( 'NONE', #109, 1000.000000000000000 ) ;
#490 = ORIENTED_EDGE ( 'NONE', *, *, #298, .F. ) ;
#491 = FACE_BOUND ( 'NONE', #119, .T. ) ;
#492 = ADVANCED_FACE ( 'NONE', ( #392 ), #758, .T. ) ;
#493 = DIRECTION ( 'NONE',  ( 0.000000000000000000, 0.000000000000000000, 1.000000000000000000 ) ) ;
#494 = EDGE_LOOP ( 'NONE', ( #904, #390, #699 ) ) ;
#495 = FACE_BOUND ( 'NONE', #585, .T. ) ;
#496 = CARTESIAN_POINT ( 'NONE',  ( 0.000000000000000000, 0.000000000000000000, -28.00000000000000000 ) ) ;
#497 = VERTEX_POINT ( 'NONE', #126 ) ;
#498 = CARTESIAN_POINT ( 'NONE',  ( 7.874007874011814678, -4.200000000000000178, -30.50000000000000000 ) ) ;
#499 = PRESENTATION_LAYER_ASSIGNMENT (  '', '', ( #624 ) ) ;
#500 = ORIENTED_EDGE ( 'NONE', *, *, #660, .T. ) ;
#501 = ADVANCED_FACE ( 'NONE', ( #331 ), #412, .F. ) ;
#502 = AXIS2_PLACEMENT_3D ( 'NONE', #580, #367, #876 ) ;
#503 = APPLICATION_PROTOCOL_DEFINITION ( 'draft international standard', 'automotive_design', 1998, #335 ) ;
#504 = CARTESIAN_POINT ( 'NONE',  ( 17.32500000000000639, 3.099999999999998757, 17.87499999999999645 ) ) ;
#505 = VERTEX_POINT ( 'NONE', #906 ) ;
#506 = ADVANCED_FACE ( 'NONE', ( #262 ), #597, .F. ) ;
#507 = DIRECTION ( 'NONE',  ( -0.000000000000000000, 1.000000000000000000, -0.000000000000000000 ) ) ;
#508 = ORIENTED_EDGE ( 'NONE', *, *, #679, .T. ) ;
#509 = ORIENTED_EDGE ( 'NONE', *, *, #861, .F. ) ;
#510 = DIRECTION ( 'NONE',  ( 0.000000000000000000, 0.000000000000000000, 1.000000000000000000 ) ) ;
#511 = ADVANCED_FACE ( 'NONE', ( #780 ), #482, .F. ) ;
#512 = CARTESIAN_POINT ( 'NONE',  ( 2.657483554149756738E-15, -4.200000000000000178, 21.69999999999999929 ) ) ;
#513 = ORIENTED_EDGE ( 'NONE', *, *, #346, .F. ) ;
#514 = AXIS2_PLACEMENT_3D ( 'NONE', #323, #400, #610 ) ;
#515 = VECTOR ( 'NONE', #553, 1000.000000000000000 ) ;
#516 = CIRCLE ( 'NONE', #704, 28.00000000000000000 ) ;
#517 = CARTESIAN_POINT ( 'NONE',  ( -7.874007874011814678, 9.550000000000000711, -30.50000000000000000 ) ) ;
#518 = ORIENTED_EDGE ( 'NONE', *, *, #789, .F. ) ;
#519 = DIRECTION ( 'NONE',  ( 0.000000000000000000, -0.000000000000000000, 1.000000000000000000 ) ) ;
#520 = CARTESIAN_POINT ( 'NONE',  ( 17.32500000000000639, 3.099999999999998757, 16.77499999999999858 ) ) ;
#521 = VERTEX_POINT ( 'NONE', #57 ) ;
#522 = EDGE_CURVE ( 'NONE', #399, #738, #416, .T. ) ;
#523 = DIRECTION ( 'NONE',  ( 0.000000000000000000, 0.000000000000000000, -1.000000000000000000 ) ) ;
#524 = PRODUCT_DEFINITION_SHAPE ( 'NONE', 'NONE',  #329 ) ;
#525 = ORIENTED_EDGE ( 'NONE', *, *, #907, .F. ) ;
#526 = ADVANCED_FACE ( 'NONE', ( #202 ), #653, .F. ) ;
#527 = CONICAL_SURFACE ( 'NONE', #854, 0.5499999999999983791, 1.029744258676652091 ) ;
#528 = DIRECTION ( 'NONE',  ( -0.000000000000000000, -1.000000000000000000, -0.000000000000000000 ) ) ;
#529 = VECTOR ( 'NONE', #451, 1000.000000000000000 ) ;
#530 = CARTESIAN_POINT ( 'NONE',  ( 0.000000000000000000, 2.000000000000000000, 0.000000000000000000 ) ) ;
#531 = DIRECTION ( 'NONE',  ( 0.000000000000000000, 0.000000000000000000, -1.000000000000000000 ) ) ;
#532 = ORIENTED_EDGE ( 'NONE', *, *, #872, .T. ) ;
#533 = CARTESIAN_POINT ( 'NONE',  ( 0.000000000000000000, -4.200000000000000178, 0.000000000000000000 ) ) ;
#534 = FACE_OUTER_BOUND ( 'NONE', #852, .T. ) ;
#535 = DIRECTION ( 'NONE',  ( 0.000000000000000000, 0.000000000000000000, 1.000000000000000000 ) ) ;
#536 = ORIENTED_EDGE ( 'NONE', *, *, #240, .T. ) ;
#537 = CARTESIAN_POINT ( 'NONE',  ( -17.32499999999999574, 3.099999999999998757, -16.77500000000000213 ) ) ;
#538 = CARTESIAN_POINT ( 'NONE',  ( 17.32500000000000639, 2.769526659534839563, 17.32499999999999574 ) ) ;
#539 = ADVANCED_FACE ( 'NONE', ( #633 ), #558, .F. ) ;
#540 = ORIENTED_EDGE ( 'NONE', *, *, #285, .T. ) ;
#541 = ORIENTED_EDGE ( 'NONE', *, *, #674, .T. ) ;
#542 = DIRECTION ( 'NONE',  ( 0.000000000000000000, 0.000000000000000000, -1.000000000000000000 ) ) ;
#543 = AXIS2_PLACEMENT_3D ( 'NONE', #243, #821, #860 ) ;
#544 = EDGE_CURVE ( 'NONE', #670, #790, #669, .T. ) ;
#545 = LINE ( 'NONE', #842, #656 ) ;
#546 = VECTOR ( 'NONE', #209, 1000.000000000000000 ) ;
#547 = ORIENTED_EDGE ( 'NONE', *, *, #146, .F. ) ;
#548 = DIRECTION ( 'NONE',  ( 0.000000000000000000, 0.000000000000000000, -1.000000000000000000 ) ) ;
#549 = ORIENTED_EDGE ( 'NONE', *, *, #865, .F. ) ;
#550 = ORIENTED_EDGE ( 'NONE', *, *, #317, .T. ) ;
#551 = APPLICATION_CONTEXT ( 'automotive_design' ) ;
#552 = EDGE_CURVE ( 'NONE', #273, #882, #685, .T. ) ;
#553 = DIRECTION ( 'NONE',  ( -0.000000000000000000, 1.000000000000000000, -0.000000000000000000 ) ) ;
#554 = CARTESIAN_POINT ( 'NONE',  ( 0.000000000000000000, 0.000000000000000000, 0.000000000000000000 ) ) ;
#555 = DIRECTION ( 'NONE',  ( 0.000000000000000000, 0.000000000000000000, -1.000000000000000000 ) ) ;
#556 = ORIENTED_EDGE ( 'NONE', *, *, #832, .T. ) ;
#557 = DIRECTION ( 'NONE',  ( -0.000000000000000000, -1.000000000000000000, -0.000000000000000000 ) ) ;
#558 = CYLINDRICAL_SURFACE ( 'NONE', #156, 22.82499999999999929 ) ;
#559 =( GEOMETRIC_REPRESENTATION_CONTEXT ( 3 ) GLOBAL_UNCERTAINTY_ASSIGNED_CONTEXT ( ( #186 ) ) GLOBAL_UNIT_ASSIGNED_CONTEXT ( ( #289, #728, #225 ) ) REPRESENTATION_CONTEXT ( 'NONE', 'WORKASPACE' ) );
#560 = PLANE ( 'NONE',  #734 ) ;
#561 = CIRCLE ( 'NONE', #732, 22.82499999999999929 ) ;
#562 = CLOSED_SHELL ( 'NONE', ( #880, #386, #506, #281, #615, #64, #583, #252, #458, #492, #511, #539, #257, #464, #683, #85, #696, #818, #18, #725, #130, #625, #800, #213, #715, #216, #117, #890, #526, #99, #826, #73, #643, #501 ) ) ;
#563 = ORIENTED_EDGE ( 'NONE', *, *, #410, .T. ) ;
#564 = DIRECTION ( 'NONE',  ( 0.000000000000000000, 0.000000000000000000, -1.000000000000000000 ) ) ;
#565 = DIRECTION ( 'NONE',  ( 1.000000000000000000, 0.000000000000000000, 0.000000000000000000 ) ) ;
#566 = ORIENTED_EDGE ( 'NONE', *, *, #660, .F. ) ;
#567 = DIRECTION ( 'NONE',  ( -0.000000000000000000, 1.000000000000000000, -0.000000000000000000 ) ) ;
#568 = CARTESIAN_POINT ( 'NONE',  ( 0.000000000000000000, 2.000000000000000000, 0.000000000000000000 ) ) ;
#569 = EDGE_CURVE ( 'NONE', #884, #521, #748, .T. ) ;
#570 = ORIENTED_EDGE ( 'NONE', *, *, #317, .F. ) ;
#571 = DIRECTION ( 'NONE',  ( 1.000000000000000000, 0.000000000000000000, 0.000000000000000000 ) ) ;
#572 = DIRECTION ( 'NONE',  ( 0.000000000000000000, 0.000000000000000000, 1.000000000000000000 ) ) ;
#573 = AXIS2_PLACEMENT_3D ( 'NONE', #835, #256, #27 ) ;
#574 = EDGE_CURVE ( 'NONE', #815, #594, #651, .T. ) ;
#575 = ORIENTED_EDGE ( 'NONE', *, *, #813, .F. ) ;
#576 = VECTOR ( 'NONE', #235, 1000.000000000000000 ) ;
#577 = LINE ( 'NONE', #646, #808 ) ;
#578 = AXIS2_PLACEMENT_3D ( 'NONE', #709, #62, #350 ) ;
#579 = FILL_AREA_STYLE ('',( #94 ) ) ;
#580 = CARTESIAN_POINT ( 'NONE',  ( -17.32499999999999574, 8.100000000000003197, -17.32499999999999929 ) ) ;
#581 = ORIENTED_EDGE ( 'NONE', *, *, #150, .F. ) ;
#582 = DIRECTION ( 'NONE',  ( 0.000000000000000000, 0.000000000000000000, -1.000000000000000000 ) ) ;
#583 = ADVANCED_FACE ( 'NONE', ( #587 ), #450, .F. ) ;
#584 = CARTESIAN_POINT ( 'NONE',  ( -17.32499999999999218, 3.099999999999998757, 17.32499999999999929 ) ) ;
#585 = EDGE_LOOP ( 'NONE', ( #364, #92 ) ) ;
#586 = CARTESIAN_POINT ( 'NONE',  ( 0.000000000000000000, 0.000000000000000000, 0.000000000000000000 ) ) ;
#587 = FACE_OUTER_BOUND ( 'NONE', #196, .T. ) ;
#588 = CARTESIAN_POINT ( 'NONE',  ( 0.000000000000000000, 2.000000000000000000, -30.50000000000000000 ) ) ;
#589 = ORIENTED_EDGE ( 'NONE', *, *, #744, .T. ) ;
#590 = ORIENTED_EDGE ( 'NONE', *, *, #789, .T. ) ;
#591 = AXIS2_PLACEMENT_3D ( 'NONE', #58, #351, #493 ) ;
#592 = SURFACE_STYLE_USAGE ( .BOTH. , #801 ) ;
#593 = LINE ( 'NONE', #446, #825 ) ;
#594 = VERTEX_POINT ( 'NONE', #366 ) ;
#595 = ORIENTED_EDGE ( 'NONE', *, *, #170, .F. ) ;
#596 = CARTESIAN_POINT ( 'NONE',  ( 0.000000000000000000, 2.000000000000000000, -28.00000000000000000 ) ) ;
#597 = CYLINDRICAL_SURFACE ( 'NONE', #543, 0.5499999999999949374 ) ;
#598 = EDGE_CURVE ( 'NONE', #919, #676, #295, .T. ) ;
#599 = ORIENTED_EDGE ( 'NONE', *, *, #353, .T. ) ;
#600 = CYLINDRICAL_SURFACE ( 'NONE', #823, 27.10000000000000142 ) ;
#601 = DIRECTION ( 'NONE',  ( -0.000000000000000000, -1.000000000000000000, -0.000000000000000000 ) ) ;
#602 = CYLINDRICAL_SURFACE ( 'NONE', #779, 0.5499999999999949374 ) ;
#603 = EDGE_LOOP ( 'NONE', ( #104, #684, #352 ) ) ;
#604 = CIRCLE ( 'NONE', #791, 0.5499999999999983791 ) ;
#605 = AXIS2_PLACEMENT_3D ( 'NONE', #745, #110, #681 ) ;
#606 = CARTESIAN_POINT ( 'NONE',  ( -17.32499999999999574, 3.099999999999998757, -17.32499999999999929 ) ) ;
#607 = CIRCLE ( 'NONE', #120, 27.10000000000000142 ) ;
#608 = CARTESIAN_POINT ( 'NONE',  ( -17.32499999999999218, 3.099999999999998757, 17.32499999999999929 ) ) ;
#609 = EDGE_LOOP ( 'NONE', ( #133, #795 ) ) ;
#610 = DIRECTION ( 'NONE',  ( 0.000000000000000000, 0.000000000000000000, -1.000000000000000000 ) ) ;
#611 = CARTESIAN_POINT ( 'NONE',  ( -17.32499999999999574, 8.100000000000001421, -17.32499999999999929 ) ) ;
#612 = CYLINDRICAL_SURFACE ( 'NONE', #419, 22.82499999999999929 ) ;
#613 = ORIENTED_EDGE ( 'NONE', *, *, #914, .T. ) ;
#614 = DIRECTION ( 'NONE',  ( 0.000000000000000000, 0.000000000000000000, -1.000000000000000000 ) ) ;
#615 = ADVANCED_FACE ( 'NONE', ( #647 ), #74, .F. ) ;
#616 = CARTESIAN_POINT ( 'NONE',  ( -17.32499999999999574, 2.769526659534839563, -17.32499999999999929 ) ) ;
#617 = CYLINDRICAL_SURFACE ( 'NONE', #118, 0.5499999999999914957 ) ;
#618 = ORIENTED_EDGE ( 'NONE', *, *, #691, .F. ) ;
#619 = FACE_BOUND ( 'NONE', #871, .T. ) ;
#620 = AXIS2_PLACEMENT_3D ( 'NONE', #402, #762, #697 ) ;
#621 = CONICAL_SURFACE ( 'NONE', #83, 0.5499999999999983791, 1.029744258676652091 ) ;
#622 = DIRECTION ( 'NONE',  ( -0.000000000000000000, 1.000000000000000000, -0.000000000000000000 ) ) ;
#623 = LINE ( 'NONE', #473, #856 ) ;
#624 = STYLED_ITEM ( 'NONE', ( #885 ), #628 ) ;
#625 = ADVANCED_FACE ( 'NONE', ( #879, #741 ), #377, .F. ) ;
#626 = ORIENTED_EDGE ( 'NONE', *, *, #574, .T. ) ;
#627 = LINE ( 'NONE', #423, #37 ) ;
#628 = MANIFOLD_SOLID_BREP ( 'M1.4x0.3 Tapped Hole1', #562 ) ;
#629 = CARTESIAN_POINT ( 'NONE',  ( 17.32500000000000639, 8.100000000000003197, 17.32499999999999574 ) ) ;
#630 = EDGE_CURVE ( 'NONE', #169, #521, #395, .T. ) ;
#631 = EDGE_LOOP ( 'NONE', ( #775, #645, #356 ) ) ;
#632 = CARTESIAN_POINT ( 'NONE',  ( 17.32499999999999929, 3.099999999999998757, -17.32500000000000639 ) ) ;
#633 = FACE_OUTER_BOUND ( 'NONE', #98, .T. ) ;
#634 = LINE ( 'NONE', #203, #546 ) ;
#635 = EDGE_LOOP ( 'NONE', ( #375, #563, #707 ) ) ;
#636 = CARTESIAN_POINT ( 'NONE',  ( -17.32499999999999574, 8.100000000000001421, -17.32499999999999929 ) ) ;
#637 = AXIS2_PLACEMENT_3D ( 'NONE', #338, #773, #427 ) ;
#638 = DIRECTION ( 'NONE',  ( -0.000000000000000000, -1.000000000000000000, -0.000000000000000000 ) ) ;
#639 = AXIS2_PLACEMENT_3D ( 'NONE', #424, #272, #555 ) ;
#640 = AXIS2_PLACEMENT_3D ( 'NONE', #63, #131, #417 ) ;
#641 = ORIENTED_EDGE ( 'NONE', *, *, #321, .F. ) ;
#642 = CARTESIAN_POINT ( 'NONE',  ( -17.32499999999999218, 8.100000000000003197, 16.77500000000001279 ) ) ;
#643 = ADVANCED_FACE ( 'NONE', ( #234 ), #867, .F. ) ;
#644 = DIRECTION ( 'NONE',  ( -0.000000000000000000, -1.000000000000000000, -0.000000000000000000 ) ) ;
#645 = ORIENTED_EDGE ( 'NONE', *, *, #59, .T. ) ;
#646 = CARTESIAN_POINT ( 'NONE',  ( -17.32499999999999574, 3.099999999999998757, -17.87500000000000000 ) ) ;
#647 = FACE_OUTER_BOUND ( 'NONE', #655, .T. ) ;
#648 = CARTESIAN_POINT ( 'NONE',  ( 0.000000000000000000, 9.550000000000000711, 0.000000000000000000 ) ) ;
#649 = ORIENTED_EDGE ( 'NONE', *, *, #437, .F. ) ;
#650 = DIRECTION ( 'NONE',  ( 0.000000000000000000, -1.000000000000000000, 0.000000000000000000 ) ) ;
#651 = LINE ( 'NONE', #299, #369 ) ;
#652 = LINE ( 'NONE', #873, #389 ) ;
#653 = CONICAL_SURFACE ( 'NONE', #578, 0.5499999999999983791, 1.029744258676652091 ) ;
#654 = EDGE_CURVE ( 'NONE', #449, #738, #459, .T. ) ;
#655 = EDGE_LOOP ( 'NONE', ( #270, #30, #896, #830 ) ) ;
#656 = VECTOR ( 'NONE', #693, 1000.000000000000000 ) ;
#657 = VECTOR ( 'NONE', #14, 1000.000000000000000 ) ;
#658 = DIRECTION ( 'NONE',  ( 0.000000000000000000, 0.000000000000000000, 1.000000000000000000 ) ) ;
#659 = EDGE_LOOP ( 'NONE', ( #889, #566 ) ) ;
#660 = EDGE_CURVE ( 'NONE', #200, #180, #456, .T. ) ;
#661 = DIRECTION ( 'NONE',  ( 1.049727191138617217E-16, 0.5150380749100562650, -0.8571673007021111124 ) ) ;
#662 = DIRECTION ( 'NONE',  ( 0.000000000000000000, 0.000000000000000000, -1.000000000000000000 ) ) ;
#663 = CARTESIAN_POINT ( 'NONE',  ( -17.32499999999999574, 3.099999999999998757, -17.87500000000000000 ) ) ;
#664 = ORIENTED_EDGE ( 'NONE', *, *, #309, .F. ) ;
#665 = EDGE_LOOP ( 'NONE', ( #429, #490, #241, #599 ) ) ;
#666 = DIRECTION ( 'NONE',  ( -0.000000000000000000, 1.000000000000000000, -0.000000000000000000 ) ) ;
#667 = DIRECTION ( 'NONE',  ( 0.000000000000000000, 0.000000000000000000, 1.000000000000000000 ) ) ;
#668 = EDGE_LOOP ( 'NONE', ( #65, #509 ) ) ;
#669 = CIRCLE ( 'NONE', #4, 31.50000000000000000 ) ;
#670 = VERTEX_POINT ( 'NONE', #121 ) ;
#671 = AXIS2_PLACEMENT_3D ( 'NONE', #759, #111, #829 ) ;
#672 = CONICAL_SURFACE ( 'NONE', #327, 0.5499999999999983791, 1.029744258676652091 ) ;
#673 = DIRECTION ( 'NONE',  ( 0.000000000000000000, 0.000000000000000000, 1.000000000000000000 ) ) ;
#674 = EDGE_CURVE ( 'NONE', #232, #406, #706, .T. ) ;
#675 = DIRECTION ( 'NONE',  ( -1.000000000000000000, 0.000000000000000000, 0.000000000000000000 ) ) ;
#676 = VERTEX_POINT ( 'NONE', #106 ) ;
#677 = LINE ( 'NONE', #391, #754 ) ;
#678 = CARTESIAN_POINT ( 'NONE',  ( 0.000000000000000000, 0.000000000000000000, 0.000000000000000000 ) ) ;
#679 = EDGE_CURVE ( 'NONE', #733, #260, #677, .T. ) ;
#680 = CYLINDRICAL_SURFACE ( 'NONE', #53, 18.99999999999999645 ) ;
#681 = DIRECTION ( 'NONE',  ( 0.000000000000000000, 0.000000000000000000, -1.000000000000000000 ) ) ;
#682 = FACE_OUTER_BOUND ( 'NONE', #747, .T. ) ;
#683 = ADVANCED_FACE ( 'NONE', ( #687 ), #692, .T. ) ;
#684 = ORIENTED_EDGE ( 'NONE', *, *, #654, .T. ) ;
#685 = CIRCLE ( 'NONE', #909, 0.5499999999999880540 ) ;
#686 = AXIS2_PLACEMENT_3D ( 'NONE', #632, #567, #349 ) ;
#687 = FACE_OUTER_BOUND ( 'NONE', #743, .T. ) ;
#688 = CONICAL_SURFACE ( 'NONE', #24, 0.5499999999999983791, 1.029744258676652091 ) ;
#689 = DIRECTION ( 'NONE',  ( 1.049727191138617217E-16, 0.5150380749100562650, -0.8571673007021111124 ) ) ;
#690 = EDGE_LOOP ( 'NONE', ( #590, #833 ) ) ;
#691 = EDGE_CURVE ( 'NONE', #505, #360, #50, .T. ) ;
#692 = CYLINDRICAL_SURFACE ( 'NONE', #573, 31.50000000000000000 ) ;
#693 = DIRECTION ( 'NONE',  ( 1.049727191138617217E-16, 0.5150380749100562650, -0.8571673007021111124 ) ) ;
#694 = VERTEX_POINT ( 'NONE', #242 ) ;
#695 = DIRECTION ( 'NONE',  ( -0.000000000000000000, 1.000000000000000000, -0.000000000000000000 ) ) ;
#696 = ADVANCED_FACE ( 'NONE', ( #761 ), #600, .F. ) ;
#697 = DIRECTION ( 'NONE',  ( 0.000000000000000000, 0.000000000000000000, 1.000000000000000000 ) ) ;
#698 = FACE_OUTER_BOUND ( 'NONE', #306, .T. ) ;
#699 = ORIENTED_EDGE ( 'NONE', *, *, #437, .T. ) ;
#700 = FACE_OUTER_BOUND ( 'NONE', #214, .T. ) ;
#701 = PRODUCT_DEFINITION_FORMATION_WITH_SPECIFIED_SOURCE ( 'ANY', '', #96, .NOT_KNOWN. ) ;
#702 = AXIS2_PLACEMENT_3D ( 'NONE', #32, #254, #36 ) ;
#703 = CARTESIAN_POINT ( 'NONE',  ( -17.32499999999999574, 3.099999999999998757, -17.32499999999999929 ) ) ;
#704 = AXIS2_PLACEMENT_3D ( 'NONE', #862, #792, #918 ) ;
#705 = FACE_OUTER_BOUND ( 'NONE', #494, .T. ) ;
#706 = CIRCLE ( 'NONE', #221, 0.5499999999999880540 ) ;
#707 = ORIENTED_EDGE ( 'NONE', *, *, #753, .T. ) ;
#708 = DIRECTION ( 'NONE',  ( 0.000000000000000000, -1.000000000000000000, 0.000000000000000000 ) ) ;
#709 = CARTESIAN_POINT ( 'NONE',  ( 17.32500000000000639, 3.099999999999998757, 17.32499999999999574 ) ) ;
#710 = FACE_OUTER_BOUND ( 'NONE', #834, .T. ) ;
#711 = VERTEX_POINT ( 'NONE', #827 ) ;
#712 = CARTESIAN_POINT ( 'NONE',  ( 3.429011037612589276E-15, 0.000000000000000000, 28.00000000000000000 ) ) ;
#713 = FACE_OUTER_BOUND ( 'NONE', #217, .T. ) ;
#714 = VERTEX_POINT ( 'NONE', #181 ) ;
#715 = ADVANCED_FACE ( 'NONE', ( #472 ), #246, .T. ) ;
#716 = LINE ( 'NONE', #201, #418 ) ;
#717 = CARTESIAN_POINT ( 'NONE',  ( 2.657483554149756738E-15, 0.000000000000000000, 21.69999999999999929 ) ) ;
#718 = AXIS2_PLACEMENT_3D ( 'NONE', #67, #638, #282 ) ;
#719 = ORIENTED_EDGE ( 'NONE', *, *, #475, .F. ) ;
#720 = CARTESIAN_POINT ( 'NONE',  ( 3.318792825689327485E-15, 0.000000000000000000, 27.10000000000000142 ) ) ;
#721 = CARTESIAN_POINT ( 'NONE',  ( 17.32499999999999929, 8.100000000000001421, -17.87500000000000355 ) ) ;
#722 = CARTESIAN_POINT ( 'NONE',  ( 0.000000000000000000, 9.550000000000000711, -27.10000000000000142 ) ) ;
#723 = ORIENTED_EDGE ( 'NONE', *, *, #229, .T. ) ;
#724 = DIRECTION ( 'NONE',  ( 0.000000000000000000, 0.000000000000000000, 1.000000000000000000 ) ) ;
#725 = ADVANCED_FACE ( 'NONE', ( #177, #905 ), #899, .F. ) ;
#726 = DIRECTION ( 'NONE',  ( 0.000000000000000000, 0.000000000000000000, 1.000000000000000000 ) ) ;
#727 = ORIENTED_EDGE ( 'NONE', *, *, #679, .F. ) ;
#728 =( NAMED_UNIT ( * ) PLANE_ANGLE_UNIT ( ) SI_UNIT ( $, .RADIAN. ) );
#729 = CARTESIAN_POINT ( 'NONE',  ( 17.32499999999999929, 3.099999999999998757, -16.77500000000000924 ) ) ;
#730 = EDGE_CURVE ( 'NONE', #414, #884, #840, .T. ) ;
#731 = COLOUR_RGB ( '',0.7921568627450980005, 0.8196078431372548767, 0.9333333333333333481 ) ;
#732 = AXIS2_PLACEMENT_3D ( 'NONE', #859, #211, #776 ) ;
#733 = VERTEX_POINT ( 'NONE', #596 ) ;
#734 = AXIS2_PLACEMENT_3D ( 'NONE', #568, #290, #864 ) ;
#735 = CARTESIAN_POINT ( 'NONE',  ( 0.000000000000000000, 0.000000000000000000, 0.000000000000000000 ) ) ;
#736 = CARTESIAN_POINT ( 'NONE',  ( 0.000000000000000000, 2.600000000000001421, 0.000000000000000000 ) ) ;
#737 = LINE ( 'NONE', #6, #576 ) ;
#738 = VERTEX_POINT ( 'NONE', #757 ) ;
#739 = ORIENTED_EDGE ( 'NONE', *, *, #240, .F. ) ;
#740 = DIRECTION ( 'NONE',  ( -0.000000000000000000, -1.000000000000000000, -0.000000000000000000 ) ) ;
#741 = FACE_OUTER_BOUND ( 'NONE', #690, .T. ) ;
#742 = DIRECTION ( 'NONE',  ( -0.000000000000000000, 1.000000000000000000, -0.000000000000000000 ) ) ;
#743 = EDGE_LOOP ( 'NONE', ( #448, #318, #837, #929 ) ) ;
#744 = EDGE_CURVE ( 'NONE', #180, #200, #103, .T. ) ;
#745 = CARTESIAN_POINT ( 'NONE',  ( 0.000000000000000000, 8.100000000000001421, 0.000000000000000000 ) ) ;
#746 = DIRECTION ( 'NONE',  ( -0.000000000000000000, -1.000000000000000000, -0.000000000000000000 ) ) ;
#747 = EDGE_LOOP ( 'NONE', ( #277, #80, #440 ) ) ;
#748 = CIRCLE ( 'NONE', #777, 22.82499999999999929 ) ;
#749 = CIRCLE ( 'NONE', #765, 21.69999999999999929 ) ;
#750 = AXIS2_PLACEMENT_3D ( 'NONE', #629, #70, #788 ) ;
#751 = ORIENTED_EDGE ( 'NONE', *, *, #785, .T. ) ;
#752 = VECTOR ( 'NONE', #21, 1000.000000000000000 ) ;
#753 = EDGE_CURVE ( 'NONE', #711, #297, #926, .T. ) ;
#754 = VECTOR ( 'NONE', #528, 1000.000000000000000 ) ;
#755 = DIRECTION ( 'NONE',  ( 0.000000000000000000, 0.000000000000000000, 1.000000000000000000 ) ) ;
#756 = CARTESIAN_POINT ( 'NONE',  ( -17.32499999999999218, 3.099999999999998757, 17.87500000000000000 ) ) ;
#757 = CARTESIAN_POINT ( 'NONE',  ( -17.32499999999999574, 3.099999999999998757, -16.77500000000000213 ) ) ;
#758 = CYLINDRICAL_SURFACE ( 'NONE', #422, 21.69999999999999929 ) ;
#759 = CARTESIAN_POINT ( 'NONE',  ( 0.000000000000000000, -4.200000000000000178, 0.000000000000000000 ) ) ;
#760 = ORIENTED_EDGE ( 'NONE', *, *, #522, .T. ) ;
#761 = FACE_OUTER_BOUND ( 'NONE', #847, .T. ) ;
#762 = DIRECTION ( 'NONE',  ( -0.000000000000000000, 1.000000000000000000, -0.000000000000000000 ) ) ;
#763 = CARTESIAN_POINT ( 'NONE',  ( 17.32500000000000639, 3.099999999999998757, 17.32499999999999574 ) ) ;
#764 = ORIENTED_EDGE ( 'NONE', *, *, #872, .F. ) ;
#765 = AXIS2_PLACEMENT_3D ( 'NONE', #533, #831, #564 ) ;
#766 = DIRECTION ( 'NONE',  ( -0.000000000000000000, -1.000000000000000000, -0.000000000000000000 ) ) ;
#767 = ORIENTED_EDGE ( 'NONE', *, *, #797, .T. ) ;
#768 = ORIENTED_EDGE ( 'NONE', *, *, #291, .T. ) ;
#769 = CARTESIAN_POINT ( 'NONE',  ( -17.32499999999999218, 8.100000000000001421, 17.32499999999999929 ) ) ;
#770 = DIRECTION ( 'NONE',  ( 0.000000000000000000, 0.000000000000000000, 1.000000000000000000 ) ) ;
#771 = FACE_OUTER_BOUND ( 'NONE', #665, .T. ) ;
#772 = ORIENTED_EDGE ( 'NONE', *, *, #2, .F. ) ;
#773 = DIRECTION ( 'NONE',  ( 0.000000000000000000, -1.000000000000000000, -0.000000000000000000 ) ) ;
#774 = LINE ( 'NONE', #717, #265 ) ;
#775 = ORIENTED_EDGE ( 'NONE', *, *, #410, .F. ) ;
#776 = DIRECTION ( 'NONE',  ( 0.000000000000000000, 0.000000000000000000, -1.000000000000000000 ) ) ;
#777 = AXIS2_PLACEMENT_3D ( 'NONE', #736, #238, #382 ) ;
#778 = AXIS2_PLACEMENT_3D ( 'NONE', #315, #253, #523 ) ;
#779 = AXIS2_PLACEMENT_3D ( 'NONE', #405, #46, #189 ) ;
#780 = FACE_OUTER_BOUND ( 'NONE', #426, .T. ) ;
#781 = DIRECTION ( 'NONE',  ( -0.000000000000000000, 1.000000000000000000, -0.000000000000000000 ) ) ;
#782 = ORIENTED_EDGE ( 'NONE', *, *, #153, .F. ) ;
#783 = CARTESIAN_POINT ( 'NONE',  ( 0.000000000000000000, 0.000000000000000000, 0.000000000000000000 ) ) ;
#784 = CARTESIAN_POINT ( 'NONE',  ( 0.000000000000000000, 8.100000000000001421, 0.000000000000000000 ) ) ;
#785 = EDGE_CURVE ( 'NONE', #866, #260, #52, .T. ) ;
#786 = ORIENTED_EDGE ( 'NONE', *, *, #29, .T. ) ;
#787 = CARTESIAN_POINT ( 'NONE',  ( 17.32499999999999929, 3.099999999999998757, -17.32500000000000639 ) ) ;
#788 = DIRECTION ( 'NONE',  ( 0.000000000000000000, 0.000000000000000000, 1.000000000000000000 ) ) ;
#789 = EDGE_CURVE ( 'NONE', #932, #333, #749, .T. ) ;
#790 = VERTEX_POINT ( 'NONE', #271 ) ;
#791 = AXIS2_PLACEMENT_3D ( 'NONE', #461, #187, #770 ) ;
#792 = DIRECTION ( 'NONE',  ( 0.000000000000000000, -1.000000000000000000, 0.000000000000000000 ) ) ;
#793 = VECTOR ( 'NONE', #413, 1000.000000000000000 ) ;
#794 = AXIS2_PLACEMENT_3D ( 'NONE', #304, #231, #667 ) ;
#795 = ORIENTED_EDGE ( 'NONE', *, *, #544, .T. ) ;
#796 = SHAPE_DEFINITION_REPRESENTATION ( #524, #173 ) ;
#797 = EDGE_CURVE ( 'NONE', #919, #376, #5, .T. ) ;
#798 = CARTESIAN_POINT ( 'NONE',  ( -17.32499999999999218, 3.099999999999998757, 17.32499999999999929 ) ) ;
#799 = ORIENTED_EDGE ( 'NONE', *, *, #785, .F. ) ;
#800 = ADVANCED_FACE ( 'NONE', ( #198 ), #129, .T. ) ;
#801 = SURFACE_SIDE_STYLE ('',( #361 ) ) ;
#802 = CARTESIAN_POINT ( 'NONE',  ( -17.32499999999999574, 3.099999999999998757, -17.32499999999999929 ) ) ;
#803 = ORIENTED_EDGE ( 'NONE', *, *, #897, .T. ) ;
#804 =( LENGTH_UNIT ( ) NAMED_UNIT ( * ) SI_UNIT ( .MILLI., .METRE. ) );
#805 = CARTESIAN_POINT ( 'NONE',  ( -21.69999999999999929, -4.200000000000000178, 0.000000000000000000 ) ) ;
#806 = CARTESIAN_POINT ( 'NONE',  ( -17.32499999999999218, 8.100000000000003197, 17.87499999999998934 ) ) ;
#807 = VECTOR ( 'NONE', #330, 1000.000000000000000 ) ;
#808 = VECTOR ( 'NONE', #661, 1000.000000000000000 ) ;
#809 = ORIENTED_EDGE ( 'NONE', *, *, #425, .F. ) ;
#810 = CIRCLE ( 'NONE', #357, 22.82499999999999929 ) ;
#811 = DIRECTION ( 'NONE',  ( -0.000000000000000000, -1.000000000000000000, -0.000000000000000000 ) ) ;
#812 = CARTESIAN_POINT ( 'NONE',  ( 0.000000000000000000, -4.200000000000000178, 0.000000000000000000 ) ) ;
#813 = EDGE_CURVE ( 'NONE', #376, #47, #48, .T. ) ;
#814 = ORIENTED_EDGE ( 'NONE', *, *, #285, .F. ) ;
#815 = VERTEX_POINT ( 'NONE', #207 ) ;
#816 = CARTESIAN_POINT ( 'NONE',  ( 3.429011037612589276E-15, 2.000000000000000000, 28.00000000000000000 ) ) ;
#817 = ORIENTED_EDGE ( 'NONE', *, *, #569, .T. ) ;
#818 = ADVANCED_FACE ( 'NONE', ( #139, #619, #495, #491, #917, #481 ), #415, .F. ) ;
#819 = DIRECTION ( 'NONE',  ( -0.000000000000000000, -1.000000000000000000, -0.000000000000000000 ) ) ;
#820 = PRODUCT_DEFINITION_CONTEXT ( 'detailed design', #335, 'design' ) ;
#821 = DIRECTION ( 'NONE',  ( -0.000000000000000000, 1.000000000000000000, -0.000000000000000000 ) ) ;
#822 = ORIENTED_EDGE ( 'NONE', *, *, #730, .T. ) ;
#823 = AXIS2_PLACEMENT_3D ( 'NONE', #334, #185, #892 ) ;
#824 = CIRCLE ( 'NONE', #702, 18.99999999999999645 ) ;
#825 = VECTOR ( 'NONE', #84, 1000.000000000000000 ) ;
#826 = ADVANCED_FACE ( 'NONE', ( #700 ), #527, .F. ) ;
#827 = CARTESIAN_POINT ( 'NONE',  ( 17.32500000000000639, 3.099999999999998757, 16.77499999999999858 ) ) ;
#828 = CARTESIAN_POINT ( 'NONE',  ( -31.50000000000000000, 0.000000000000000000, 0.000000000000000000 ) ) ;
#829 = DIRECTION ( 'NONE',  ( 0.000000000000000000, 0.000000000000000000, -1.000000000000000000 ) ) ;
#830 = ORIENTED_EDGE ( 'NONE', *, *, #381, .F. ) ;
#831 = DIRECTION ( 'NONE',  ( -0.000000000000000000, -1.000000000000000000, -0.000000000000000000 ) ) ;
#832 = EDGE_CURVE ( 'NONE', #521, #884, #371, .T. ) ;
#833 = ORIENTED_EDGE ( 'NONE', *, *, #425, .T. ) ;
#834 = EDGE_LOOP ( 'NONE', ( #768, #348, #145, #23 ) ) ;
#835 = CARTESIAN_POINT ( 'NONE',  ( 0.000000000000000000, 0.000000000000000000, 0.000000000000000000 ) ) ;
#836 = DIRECTION ( 'NONE',  ( 0.000000000000000000, -0.000000000000000000, 1.000000000000000000 ) ) ;
#837 = ORIENTED_EDGE ( 'NONE', *, *, #544, .F. ) ;
#838 = ORIENTED_EDGE ( 'NONE', *, *, #11, .F. ) ;
#839 = AXIS2_PLACEMENT_3D ( 'NONE', #586, #650, #302 ) ;
#840 = LINE ( 'NONE', #453, #488 ) ;
#841 = PLANE ( 'NONE',  #132 ) ;
#842 = CARTESIAN_POINT ( 'NONE',  ( 17.32499999999999929, 3.099999999999998757, -17.87500000000000711 ) ) ;
#843 = EDGE_CURVE ( 'NONE', #711, #406, #716, .T. ) ;
#844 = ORIENTED_EDGE ( 'NONE', *, *, #29, .F. ) ;
#845 = CARTESIAN_POINT ( 'NONE',  ( 17.32499999999999929, 8.100000000000001421, -16.77500000000001279 ) ) ;
#846 = CARTESIAN_POINT ( 'NONE',  ( -7.874007874011814678, 9.550000000000000711, -30.50000000000000000 ) ) ;
#847 = EDGE_LOOP ( 'NONE', ( #476, #764, #71, #589 ) ) ;
#848 = EDGE_CURVE ( 'NONE', #790, #360, #627, .T. ) ;
#849 = CARTESIAN_POINT ( 'NONE',  ( 0.000000000000000000, 2.600000000000001421, -22.82499999999999929 ) ) ;
#850 = DIRECTION ( 'NONE',  ( 0.000000000000000000, 0.000000000000000000, 1.000000000000000000 ) ) ;
#851 = DIRECTION ( 'NONE',  ( 0.000000000000000000, 0.000000000000000000, -1.000000000000000000 ) ) ;
#852 = EDGE_LOOP ( 'NONE', ( #723, #540, #858, #727 ) ) ;
#853 = DIRECTION ( 'NONE',  ( -0.000000000000000000, -1.000000000000000000, -0.000000000000000000 ) ) ;
#854 = AXIS2_PLACEMENT_3D ( 'NONE', #787, #284, #911 ) ;
#855 = EDGE_CURVE ( 'NONE', #414, #169, #561, .T. ) ;
#856 = VECTOR ( 'NONE', #689, 1000.000000000000000 ) ;
#857 = DIRECTION ( 'NONE',  ( -0.000000000000000000, -1.000000000000000000, -0.000000000000000000 ) ) ;
#858 = ORIENTED_EDGE ( 'NONE', *, *, #920, .F. ) ;
#859 = CARTESIAN_POINT ( 'NONE',  ( 0.000000000000000000, 8.100000000000001421, 0.000000000000000000 ) ) ;
#860 = DIRECTION ( 'NONE',  ( 0.000000000000000000, 0.000000000000000000, 1.000000000000000000 ) ) ;
#861 = EDGE_CURVE ( 'NONE', #455, #733, #82, .T. ) ;
#862 = CARTESIAN_POINT ( 'NONE',  ( 0.000000000000000000, 2.000000000000000000, 0.000000000000000000 ) ) ;
#863 = ORIENTED_EDGE ( 'NONE', *, *, #353, .F. ) ;
#864 = DIRECTION ( 'NONE',  ( 0.000000000000000000, -0.000000000000000000, -1.000000000000000000 ) ) ;
#865 = EDGE_CURVE ( 'NONE', #594, #467, #158, .T. ) ;
#866 = VERTEX_POINT ( 'NONE', #712 ) ;
#867 = CONICAL_SURFACE ( 'NONE', #925, 0.5499999999999983791, 1.029744258676652091 ) ;
#868 = AXIS2_PLACEMENT_3D ( 'NONE', #135, #853, #61 ) ;
#869 = LINE ( 'NONE', #300, #752 ) ;
#870 = CIRCLE ( 'NONE', #55, 0.5499999999999983791 ) ;
#871 = EDGE_LOOP ( 'NONE', ( #863, #292 ) ) ;
#872 = EDGE_CURVE ( 'NONE', #141, #149, #278, .T. ) ;
#873 = CARTESIAN_POINT ( 'NONE',  ( 0.000000000000000000, 0.000000000000000000, -21.69999999999999929 ) ) ;
#874 = ORIENTED_EDGE ( 'NONE', *, *, #346, .T. ) ;
#875 = DIRECTION ( 'NONE',  ( 0.000000000000000000, -1.000000000000000000, 0.000000000000000000 ) ) ;
#876 = DIRECTION ( 'NONE',  ( 0.000000000000000000, 0.000000000000000000, 1.000000000000000000 ) ) ;
#877 = ORIENTED_EDGE ( 'NONE', *, *, #920, .T. ) ;
#878 = VERTEX_POINT ( 'NONE', #354 ) ;
#879 = FACE_BOUND ( 'NONE', #87, .T. ) ;
#880 = ADVANCED_FACE ( 'NONE', ( #279 ), #358, .F. ) ;
#881 = CARTESIAN_POINT ( 'NONE',  ( 17.32499999999999929, 8.100000000000003197, -17.32500000000000639 ) ) ;
#882 = VERTEX_POINT ( 'NONE', #642 ) ;
#883 = CIRCLE ( 'NONE', #310, 0.5499999999999983791 ) ;
#884 = VERTEX_POINT ( 'NONE', #849 ) ;
#885 = PRESENTATION_STYLE_ASSIGNMENT (( #592 ) ) ;
#886 = CARTESIAN_POINT ( 'NONE',  ( -17.32499999999999218, 8.100000000000001421, 16.77500000000000568 ) ) ;
#887 = ORIENTED_EDGE ( 'NONE', *, *, #861, .T. ) ;
#888 = CARTESIAN_POINT ( 'NONE',  ( -22.82499999999999929, 2.600000000000001421, 0.000000000000000000 ) ) ;
#889 = ORIENTED_EDGE ( 'NONE', *, *, #744, .F. ) ;
#890 = ADVANCED_FACE ( 'NONE', ( #930 ), #267, .F. ) ;
#891 = ORIENTED_EDGE ( 'NONE', *, *, #832, .F. ) ;
#892 = DIRECTION ( 'NONE',  ( 0.000000000000000000, 0.000000000000000000, -1.000000000000000000 ) ) ;
#893 = CARTESIAN_POINT ( 'NONE',  ( -31.50000000000000000, 9.550000000000000711, 0.000000000000000000 ) ) ;
#894 = VECTOR ( 'NONE', #19, 1000.000000000000000 ) ;
#895 = AXIS2_PLACEMENT_3D ( 'NONE', #17, #365, #582 ) ;
#896 = ORIENTED_EDGE ( 'NONE', *, *, #136, .T. ) ;
#897 = EDGE_CURVE ( 'NONE', #149, #200, #485, .T. ) ;
#898 = AXIS2_PLACEMENT_3D ( 'NONE', #812, #79, #388 ) ;
#899 = PLANE ( 'NONE',  #403 ) ;
#900 = DIRECTION ( 'NONE',  ( -0.000000000000000000, 1.000000000000000000, -0.000000000000000000 ) ) ;
#901 = ORIENTED_EDGE ( 'NONE', *, *, #397, .F. ) ;
#902 = DIRECTION ( 'NONE',  ( -0.000000000000000000, 1.000000000000000000, -0.000000000000000000 ) ) ;
#903 = CARTESIAN_POINT ( 'NONE',  ( 17.32500000000000639, 3.099999999999998757, 17.87499999999999645 ) ) ;
#904 = ORIENTED_EDGE ( 'NONE', *, *, #107, .F. ) ;
#905 = FACE_BOUND ( 'NONE', #328, .T. ) ;
#906 = CARTESIAN_POINT ( 'NONE',  ( 7.874007874011814678, 9.550000000000000711, -30.50000000000000000 ) ) ;
#907 = EDGE_CURVE ( 'NONE', #497, #68, #324, .T. ) ;
#908 = CARTESIAN_POINT ( 'NONE',  ( 17.32500000000000639, 8.100000000000001421, 17.32499999999999574 ) ) ;
#909 = AXIS2_PLACEMENT_3D ( 'NONE', #438, #308, #724 ) ;
#910 = ORIENTED_EDGE ( 'NONE', *, *, #197, .F. ) ;
#911 = DIRECTION ( 'NONE',  ( 0.000000000000000000, 0.000000000000000000, 1.000000000000000000 ) ) ;
#912 = VECTOR ( 'NONE', #931, 1000.000000000000000 ) ;
#913 = VECTOR ( 'NONE', #9, 1000.000000000000000 ) ;
#914 = EDGE_CURVE ( 'NONE', #449, #399, #577, .T. ) ;
#915 = CARTESIAN_POINT ( 'NONE',  ( -17.32499999999999574, 8.100000000000003197, -16.77500000000000924 ) ) ;
#916 = EDGE_LOOP ( 'NONE', ( #901, #470, #874, #305 ) ) ;
#917 = FACE_OUTER_BOUND ( 'NONE', #659, .T. ) ;
#918 = DIRECTION ( 'NONE',  ( 0.000000000000000000, 0.000000000000000000, -1.000000000000000000 ) ) ;
#919 = VERTEX_POINT ( 'NONE', #93 ) ;
#920 = EDGE_CURVE ( 'NONE', #260, #866, #116, .T. ) ;
#921 = DIRECTION ( 'NONE',  ( -0.000000000000000000, 1.000000000000000000, -0.000000000000000000 ) ) ;
#922 = CARTESIAN_POINT ( 'NONE',  ( 17.32499999999999929, 2.769526659534839563, -17.32500000000000639 ) ) ;
#923 = VERTEX_POINT ( 'NONE', #370 ) ;
#924 = DIRECTION ( 'NONE',  ( 0.000000000000000000, 0.000000000000000000, 1.000000000000000000 ) ) ;
#925 = AXIS2_PLACEMENT_3D ( 'NONE', #606, #902, #468 ) ;
#926 = CIRCLE ( 'NONE', #190, 0.5499999999999983791 ) ;
#927 = AXIS2_PLACEMENT_3D ( 'NONE', #893, #42, #49 ) ;
#928 = FACE_BOUND ( 'NONE', #668, .T. ) ;
#929 = ORIENTED_EDGE ( 'NONE', *, *, #224, .T. ) ;
#930 = FACE_OUTER_BOUND ( 'NONE', #916, .T. ) ;
#931 = DIRECTION ( 'NONE',  ( 0.000000000000000000, 0.5150380749100562650, 0.8571673007021111124 ) ) ;
#932 = VERTEX_POINT ( 'NONE', #933 ) ;
#933 = CARTESIAN_POINT ( 'NONE',  ( 0.000000000000000000, -4.200000000000000178, -21.69999999999999929 ) ) ;
ENDSEC;
END-ISO-10303-21;
